<?xml version="1.0" encoding="UTF-8" standalone="no"?>
<!DOCTYPE svg PUBLIC "-//W3C//DTD SVG 1.1//EN"
 "http://www.w3.org/Graphics/SVG/1.1/DTD/svg11.dtd">
<!-- Generated by graphviz version 12.2.1 (20241206.2353)
 -->
<!-- Title: snakemake_dag Pages: 1 -->
<svg width="393pt" height="547pt"
 viewBox="21.60 21.60 371.60 525.60" xmlns="http://www.w3.org/2000/svg" xmlns:xlink="http://www.w3.org/1999/xlink">
<g id="graph0" class="graph" transform="scale(1 1) rotate(0) translate(25.6 521.6)">
<title>snakemake_dag</title>
<polygon fill="white" stroke="none" points="-4,4 -4,-500 346,-500 346,4 -4,4"/>
<g id="clust1" class="cluster">
<title>cluster_workflow</title>
<path fill="white" stroke="black" d="M20,-8C20,-8 322,-8 322,-8 328,-8 334,-14 334,-20 334,-20 334,-360 334,-360 334,-366 328,-372 322,-372 322,-372 20,-372 20,-372 14,-372 8,-366 8,-360 8,-360 8,-20 8,-20 8,-14 14,-8 20,-8"/>
</g>
<!-- synthsr -->
<g id="node1" class="node">
<title>synthsr</title>
<path fill="none" stroke="#9756d8" stroke-width="2" d="M157,-424C157,-424 127,-424 127,-424 121,-424 115,-418 115,-412 115,-412 115,-400 115,-400 115,-394 121,-388 127,-388 127,-388 157,-388 157,-388 163,-388 169,-394 169,-400 169,-400 169,-412 169,-412 169,-418 163,-424 157,-424"/>
<text text-anchor="middle" x="142" y="-402.12" font-family="sans" font-size="10.00">synthsr</text>
</g>
<!-- 4 -->
<g id="node6" class="node">
<title>4</title>
<path fill="none" stroke="#d6d856" stroke-width="2" d="M142.88,-352C142.88,-352 69.12,-352 69.12,-352 63.12,-352 57.12,-346 57.12,-340 57.12,-340 57.12,-328 57.12,-328 57.12,-322 63.12,-316 69.12,-316 69.12,-316 142.88,-316 142.88,-316 148.88,-316 154.88,-322 154.88,-328 154.88,-328 154.88,-340 154.88,-340 154.88,-346 148.88,-352 142.88,-352"/>
<text text-anchor="middle" x="106" y="-330.12" font-family="sans" font-size="10.00">n4_bias_correction</text>
</g>
<!-- synthsr&#45;&gt;4 -->
<g id="edge12" class="edge">
<title>synthsr&#45;&gt;4</title>
<path fill="none" stroke="grey" stroke-width="2" d="M132.92,-387.34C129.32,-380.34 125.09,-372.12 121.06,-364.28"/>
<polygon fill="grey" stroke="grey" stroke-width="2" points="124.28,-362.89 116.59,-355.59 118.05,-366.09 124.28,-362.89"/>
</g>
<!-- 0 -->
<g id="node2" class="node">
<title>0</title>
<path fill="none" stroke="#56d8d8" stroke-width="2" d="M167,-64C167,-64 137,-64 137,-64 131,-64 125,-58 125,-52 125,-52 125,-40 125,-40 125,-34 131,-28 137,-28 137,-28 167,-28 167,-28 173,-28 179,-34 179,-40 179,-40 179,-52 179,-52 179,-58 173,-64 167,-64"/>
<text text-anchor="middle" x="152" y="-42.12" font-family="sans" font-size="10.00">all</text>
</g>
<!-- 1 -->
<g id="node3" class="node">
<title>1</title>
<path fill="none" stroke="#56d89a" stroke-width="2" d="M167.88,-136C167.88,-136 136.12,-136 136.12,-136 130.12,-136 124.12,-130 124.12,-124 124.12,-124 124.12,-112 124.12,-112 124.12,-106 130.12,-100 136.12,-100 136.12,-100 167.88,-100 167.88,-100 173.88,-100 179.88,-106 179.88,-112 179.88,-112 179.88,-124 179.88,-124 179.88,-130 173.88,-136 167.88,-136"/>
<text text-anchor="middle" x="152" y="-114.12" font-family="sans" font-size="10.00">gen_fcsv</text>
</g>
<!-- 1&#45;&gt;0 -->
<g id="edge1" class="edge">
<title>1&#45;&gt;0</title>
<path fill="none" stroke="grey" stroke-width="2" d="M152,-99.34C152,-92.75 152,-85.08 152,-77.67"/>
<polygon fill="grey" stroke="grey" stroke-width="2" points="155.5,-77.93 152,-67.93 148.5,-77.93 155.5,-77.93"/>
</g>
<!-- 2 -->
<g id="node4" class="node">
<title>2</title>
<path fill="none" stroke="#d85656" stroke-width="2" d="M87.75,-208C87.75,-208 40.25,-208 40.25,-208 34.25,-208 28.25,-202 28.25,-196 28.25,-196 28.25,-184 28.25,-184 28.25,-178 34.25,-172 40.25,-172 40.25,-172 87.75,-172 87.75,-172 93.75,-172 99.75,-178 99.75,-184 99.75,-184 99.75,-196 99.75,-196 99.75,-202 93.75,-208 87.75,-208"/>
<text text-anchor="middle" x="64" y="-186.12" font-family="sans" font-size="10.00">resample_im</text>
</g>
<!-- 2&#45;&gt;1 -->
<g id="edge2" class="edge">
<title>2&#45;&gt;1</title>
<path fill="none" stroke="grey" stroke-width="2" d="M86.21,-171.34C96.24,-163.36 108.29,-153.77 119.33,-144.99"/>
<polygon fill="grey" stroke="grey" stroke-width="2" points="121.48,-147.75 127.13,-138.79 117.12,-142.27 121.48,-147.75"/>
</g>
<!-- 3 -->
<g id="node5" class="node">
<title>3</title>
<path fill="none" stroke="#569ad8" stroke-width="2" d="M83,-280C83,-280 53,-280 53,-280 47,-280 41,-274 41,-268 41,-268 41,-256 41,-256 41,-250 47,-244 53,-244 53,-244 83,-244 83,-244 89,-244 95,-250 95,-256 95,-256 95,-268 95,-268 95,-274 89,-280 83,-280"/>
<text text-anchor="middle" x="68" y="-258.12" font-family="sans" font-size="10.00">norm_im</text>
</g>
<!-- 3&#45;&gt;2 -->
<g id="edge5" class="edge">
<title>3&#45;&gt;2</title>
<path fill="none" stroke="grey" stroke-width="2" d="M66.99,-243.34C66.61,-236.75 66.18,-229.08 65.75,-221.67"/>
<polygon fill="grey" stroke="grey" stroke-width="2" points="69.26,-221.71 65.2,-211.92 62.27,-222.11 69.26,-221.71"/>
</g>
<!-- 4&#45;&gt;3 -->
<g id="edge6" class="edge">
<title>4&#45;&gt;3</title>
<path fill="none" stroke="grey" stroke-width="2" d="M96.41,-315.34C92.61,-308.34 88.15,-300.12 83.89,-292.28"/>
<polygon fill="grey" stroke="grey" stroke-width="2" points="87.01,-290.68 79.16,-283.56 80.86,-294.02 87.01,-290.68"/>
</g>
<!-- 6 -->
<g id="node8" class="node">
<title>6</title>
<path fill="none" stroke="#97d856" stroke-width="2" d="M163,-280C163,-280 133,-280 133,-280 127,-280 121,-274 121,-268 121,-268 121,-256 121,-256 121,-250 127,-244 133,-244 133,-244 163,-244 163,-244 169,-244 175,-250 175,-256 175,-256 175,-268 175,-268 175,-274 169,-280 163,-280"/>
<text text-anchor="middle" x="148" y="-258.12" font-family="sans" font-size="10.00">mni2sub</text>
</g>
<!-- 4&#45;&gt;6 -->
<g id="edge8" class="edge">
<title>4&#45;&gt;6</title>
<path fill="none" stroke="grey" stroke-width="2" d="M116.6,-315.34C120.84,-308.26 125.85,-299.92 130.6,-292"/>
<polygon fill="grey" stroke="grey" stroke-width="2" points="133.56,-293.87 135.7,-283.5 127.56,-290.27 133.56,-293.87"/>
</g>
<!-- 5 -->
<g id="node7" class="node">
<title>5</title>
<path fill="none" stroke="#d89556" stroke-width="2" d="M174.25,-208C174.25,-208 129.75,-208 129.75,-208 123.75,-208 117.75,-202 117.75,-196 117.75,-196 117.75,-184 117.75,-184 117.75,-178 123.75,-172 129.75,-172 129.75,-172 174.25,-172 174.25,-172 180.25,-172 186.25,-178 186.25,-184 186.25,-184 186.25,-196 186.25,-196 186.25,-202 180.25,-208 174.25,-208"/>
<text text-anchor="middle" x="152" y="-186.12" font-family="sans" font-size="10.00">mni2subfids</text>
</g>
<!-- 5&#45;&gt;1 -->
<g id="edge3" class="edge">
<title>5&#45;&gt;1</title>
<path fill="none" stroke="grey" stroke-width="2" d="M152,-171.34C152,-164.75 152,-157.08 152,-149.67"/>
<polygon fill="grey" stroke="grey" stroke-width="2" points="155.5,-149.93 152,-139.93 148.5,-149.93 155.5,-149.93"/>
</g>
<!-- 6&#45;&gt;5 -->
<g id="edge7" class="edge">
<title>6&#45;&gt;5</title>
<path fill="none" stroke="grey" stroke-width="2" d="M149.01,-243.34C149.39,-236.75 149.82,-229.08 150.25,-221.67"/>
<polygon fill="grey" stroke="grey" stroke-width="2" points="153.73,-222.11 150.8,-211.92 146.74,-221.71 153.73,-222.11"/>
</g>
<!-- 7 -->
<g id="node9" class="node">
<title>7</title>
<path fill="none" stroke="#59d856" stroke-width="2" d="M301.88,-208C301.88,-208 216.12,-208 216.12,-208 210.12,-208 204.12,-202 204.12,-196 204.12,-196 204.12,-184 204.12,-184 204.12,-178 210.12,-172 216.12,-172 216.12,-172 301.88,-172 301.88,-172 307.88,-172 313.88,-178 313.88,-184 313.88,-184 313.88,-196 313.88,-196 313.88,-202 307.88,-208 301.88,-208"/>
<text text-anchor="middle" x="259" y="-186.12" font-family="sans" font-size="10.00">download_cnn_model</text>
</g>
<!-- 7&#45;&gt;1 -->
<g id="edge4" class="edge">
<title>7&#45;&gt;1</title>
<path fill="none" stroke="grey" stroke-width="2" d="M231.72,-171.15C219.02,-162.84 203.7,-152.82 189.89,-143.79"/>
<polygon fill="grey" stroke="grey" stroke-width="2" points="192.05,-141.02 181.76,-138.47 188.21,-146.87 192.05,-141.02"/>
</g>
<!-- T1w -->
<g id="node10" class="node">
<title>T1w</title>
<text text-anchor="middle" x="70" y="-400.98" font-family="sans" font-size="12.00">T1w</text>
</g>
<!-- T1w&#45;&gt;4 -->
<g id="edge9" class="edge">
<title>T1w&#45;&gt;4</title>
<path fill="none" stroke="grey" stroke-width="2" stroke-dasharray="5,2" d="M78.71,-388.05C82.41,-380.88 86.81,-372.31 91,-364.17"/>
<polygon fill="grey" stroke="grey" stroke-width="2" points="94.02,-365.95 95.48,-355.46 87.79,-362.75 94.02,-365.95"/>
</g>
<!-- T2w -->
<g id="node11" class="node">
<title>T2w</title>
<text text-anchor="middle" x="106" y="-472.98" font-family="sans" font-size="12.00">T2w</text>
</g>
<!-- T2w&#45;&gt;synthsr -->
<g id="edge10" class="edge">
<title>T2w&#45;&gt;synthsr</title>
<path fill="none" stroke="grey" stroke-width="2" stroke-dasharray="5,2" d="M114.71,-460.05C118.41,-452.88 122.81,-444.31 127,-436.17"/>
<polygon fill="grey" stroke="grey" stroke-width="2" points="130.02,-437.95 131.48,-427.46 123.79,-434.75 130.02,-437.95"/>
</g>
<!-- FLAIR -->
<g id="node12" class="node">
<title>FLAIR</title>
<text text-anchor="middle" x="178" y="-472.98" font-family="sans" font-size="12.00">FLAIR</text>
</g>
<!-- FLAIR&#45;&gt;synthsr -->
<g id="edge11" class="edge">
<title>FLAIR&#45;&gt;synthsr</title>
<path fill="none" stroke="grey" stroke-width="2" stroke-dasharray="5,2" d="M169.29,-460.05C165.59,-452.88 161.19,-444.31 157,-436.17"/>
<polygon fill="grey" stroke="grey" stroke-width="2" points="160.21,-434.75 152.52,-427.46 153.98,-437.95 160.21,-434.75"/>
</g>
</g>
</svg>
