<?xml version="1.0" encoding="UTF-8" standalone="no"?>
<!DOCTYPE svg PUBLIC "-//W3C//DTD SVG 1.1//EN"
 "http://www.w3.org/Graphics/SVG/1.1/DTD/svg11.dtd">
<!-- Generated by graphviz version 2.43.0 (0)
 -->
<!-- Title: snakemake_dag Pages: 1 -->
<svg width="322pt" height="404pt"
 viewBox="0.00 0.00 322.00 404.00" xmlns="http://www.w3.org/2000/svg" xmlns:xlink="http://www.w3.org/1999/xlink">
<g id="graph0" class="graph" transform="scale(1 1) rotate(0) translate(4 400)">
<title>snakemake_dag</title>
<polygon fill="white" stroke="transparent" points="-4,4 -4,-400 318,-400 318,4 -4,4"/>
<!-- 0 -->
<g id="node1" class="node">
<title>0</title>
<path fill="none" stroke="#59d856" stroke-width="2" d="M151,-36C151,-36 121,-36 121,-36 115,-36 109,-30 109,-24 109,-24 109,-12 109,-12 109,-6 115,0 121,0 121,0 151,0 151,0 157,0 163,-6 163,-12 163,-12 163,-24 163,-24 163,-30 157,-36 151,-36"/>
<text text-anchor="middle" x="136" y="-15.5" font-family="sans" font-size="10.00">all</text>
</g>
<!-- 1 -->
<g id="node2" class="node">
<title>1</title>
<path fill="none" stroke="#97d856" stroke-width="2" d="M154,-108C154,-108 118,-108 118,-108 112,-108 106,-102 106,-96 106,-96 106,-84 106,-84 106,-78 112,-72 118,-72 118,-72 154,-72 154,-72 160,-72 166,-78 166,-84 166,-84 166,-96 166,-96 166,-102 160,-108 154,-108"/>
<text text-anchor="middle" x="136" y="-87.5" font-family="sans" font-size="10.00">gen_fcsv</text>
</g>
<!-- 1&#45;&gt;0 -->
<g id="edge1" class="edge">
<title>1&#45;&gt;0</title>
<path fill="none" stroke="grey" stroke-width="2" d="M136,-71.7C136,-63.98 136,-54.71 136,-46.11"/>
<polygon fill="grey" stroke="grey" stroke-width="2" points="139.5,-46.1 136,-36.1 132.5,-46.1 139.5,-46.1"/>
</g>
<!-- 2 -->
<g id="node3" class="node">
<title>2</title>
<path fill="none" stroke="#d89556" stroke-width="2" d="M68,-180C68,-180 12,-180 12,-180 6,-180 0,-174 0,-168 0,-168 0,-156 0,-156 0,-150 6,-144 12,-144 12,-144 68,-144 68,-144 74,-144 80,-150 80,-156 80,-156 80,-168 80,-168 80,-174 74,-180 68,-180"/>
<text text-anchor="middle" x="40" y="-159.5" font-family="sans" font-size="10.00">resample_im</text>
</g>
<!-- 2&#45;&gt;1 -->
<g id="edge2" class="edge">
<title>2&#45;&gt;1</title>
<path fill="none" stroke="grey" stroke-width="2" d="M63.73,-143.7C75.94,-134.8 90.99,-123.82 104.18,-114.2"/>
<polygon fill="grey" stroke="grey" stroke-width="2" points="106.52,-116.82 112.54,-108.1 102.4,-111.17 106.52,-116.82"/>
</g>
<!-- 3 -->
<g id="node4" class="node">
<title>3</title>
<path fill="none" stroke="#569ad8" stroke-width="2" d="M67,-252C67,-252 31,-252 31,-252 25,-252 19,-246 19,-240 19,-240 19,-228 19,-228 19,-222 25,-216 31,-216 31,-216 67,-216 67,-216 73,-216 79,-222 79,-228 79,-228 79,-240 79,-240 79,-246 73,-252 67,-252"/>
<text text-anchor="middle" x="49" y="-231.5" font-family="sans" font-size="10.00">norm_im</text>
</g>
<!-- 3&#45;&gt;2 -->
<g id="edge5" class="edge">
<title>3&#45;&gt;2</title>
<path fill="none" stroke="grey" stroke-width="2" d="M46.78,-215.7C45.78,-207.98 44.59,-198.71 43.49,-190.11"/>
<polygon fill="grey" stroke="grey" stroke-width="2" points="46.95,-189.58 42.2,-180.1 40,-190.47 46.95,-189.58"/>
</g>
<!-- 4 -->
<g id="node5" class="node">
<title>4</title>
<path fill="none" stroke="#d6d856" stroke-width="2" d="M130,-324C130,-324 46,-324 46,-324 40,-324 34,-318 34,-312 34,-312 34,-300 34,-300 34,-294 40,-288 46,-288 46,-288 130,-288 130,-288 136,-288 142,-294 142,-300 142,-300 142,-312 142,-312 142,-318 136,-324 130,-324"/>
<text text-anchor="middle" x="88" y="-303.5" font-family="sans" font-size="10.00">n4_bias_correction</text>
</g>
<!-- 4&#45;&gt;3 -->
<g id="edge6" class="edge">
<title>4&#45;&gt;3</title>
<path fill="none" stroke="grey" stroke-width="2" d="M78.36,-287.7C73.87,-279.64 68.44,-269.89 63.48,-260.98"/>
<polygon fill="grey" stroke="grey" stroke-width="2" points="66.45,-259.14 58.53,-252.1 60.34,-262.54 66.45,-259.14"/>
</g>
<!-- 6 -->
<g id="node7" class="node">
<title>6</title>
<path fill="none" stroke="#56d8d8" stroke-width="2" d="M148.5,-252C148.5,-252 113.5,-252 113.5,-252 107.5,-252 101.5,-246 101.5,-240 101.5,-240 101.5,-228 101.5,-228 101.5,-222 107.5,-216 113.5,-216 113.5,-216 148.5,-216 148.5,-216 154.5,-216 160.5,-222 160.5,-228 160.5,-228 160.5,-240 160.5,-240 160.5,-246 154.5,-252 148.5,-252"/>
<text text-anchor="middle" x="131" y="-231.5" font-family="sans" font-size="10.00">mni2sub</text>
</g>
<!-- 4&#45;&gt;6 -->
<g id="edge8" class="edge">
<title>4&#45;&gt;6</title>
<path fill="none" stroke="grey" stroke-width="2" d="M98.63,-287.7C103.63,-279.56 109.69,-269.69 115.21,-260.7"/>
<polygon fill="grey" stroke="grey" stroke-width="2" points="118.24,-262.46 120.49,-252.1 112.28,-258.79 118.24,-262.46"/>
</g>
<!-- 5 -->
<g id="node6" class="node">
<title>5</title>
<path fill="none" stroke="#56d89a" stroke-width="2" d="M162,-180C162,-180 110,-180 110,-180 104,-180 98,-174 98,-168 98,-168 98,-156 98,-156 98,-150 104,-144 110,-144 110,-144 162,-144 162,-144 168,-144 174,-150 174,-156 174,-156 174,-168 174,-168 174,-174 168,-180 162,-180"/>
<text text-anchor="middle" x="136" y="-159.5" font-family="sans" font-size="10.00">mni2subfids</text>
</g>
<!-- 6&#45;&gt;1 -->
<g id="edge3" class="edge">
<title>5&#45;&gt;1</title>
<path fill="none" stroke="grey" stroke-width="2" d="M136,-143.7C136,-135.98 136,-126.71 136,-118.11"/>
<polygon fill="grey" stroke="grey" stroke-width="2" points="139.5,-118.1 136,-108.1 132.5,-118.1 139.5,-118.1"/>
</g>
<!-- 6&#45;&gt;5 -->
<g id="edge7" class="edge">
<title>6&#45;&gt;5</title>
<path fill="none" stroke="grey" stroke-width="2" d="M132.24,-215.7C132.79,-207.98 133.45,-198.71 134.06,-190.11"/>
<polygon fill="grey" stroke="grey" stroke-width="2" points="137.56,-190.33 134.78,-180.1 130.57,-189.83 137.56,-190.33"/>
</g>
<!-- 7 -->
<g id="node8" class="node">
<title>7</title>
<path fill="none" stroke="#d85656" stroke-width="2" stroke-dasharray="5,2" d="M302,-180C302,-180 204,-180 204,-180 198,-180 192,-174 192,-168 192,-168 192,-156 192,-156 192,-150 198,-144 204,-144 204,-144 302,-144 302,-144 308,-144 314,-150 314,-156 314,-156 314,-168 314,-168 314,-174 308,-180 302,-180"/>
<text text-anchor="middle" x="253" y="-159.5" font-family="sans" font-size="10.00">download_cnn_model</text>
</g>
<!-- 7&#45;&gt;1 -->
<g id="edge4" class="edge">
<title>7&#45;&gt;1</title>
<path fill="none" stroke="grey" stroke-width="2" d="M224.38,-143.88C209.08,-134.72 190.06,-123.34 173.58,-113.48"/>
<polygon fill="grey" stroke="grey" stroke-width="2" points="175.11,-110.32 164.73,-108.19 171.52,-116.33 175.11,-110.32"/>
</g>
</g>
</svg>
