<?xml version="1.0" encoding="UTF-8" standalone="no"?>
<!DOCTYPE svg PUBLIC "-//W3C//DTD SVG 1.1//EN"
 "http://www.w3.org/Graphics/SVG/1.1/DTD/svg11.dtd">
<!-- Generated by graphviz version 2.43.0 (0)
 -->
<!-- Title: snakemake_dag Pages: 1 -->
<svg width="438pt" height="547pt"
 viewBox="21.60 21.60 416.60 525.60" xmlns="http://www.w3.org/2000/svg" xmlns:xlink="http://www.w3.org/1999/xlink">
<g id="graph0" class="graph" transform="scale(1 1) rotate(0) translate(25.6 521.6)">
<title>snakemake_dag</title>
<polygon fill="white" stroke="transparent" points="-4,4 -4,-500 391,-500 391,4 -4,4"/>
<g id="clust1" class="cluster">
<title>cluster_workflow</title>
<path fill="white" stroke="black" d="M20,-8C20,-8 350,-8 350,-8 356,-8 362,-14 362,-20 362,-20 362,-360 362,-360 362,-366 356,-372 350,-372 350,-372 20,-372 20,-372 14,-372 8,-366 8,-360 8,-360 8,-20 8,-20 8,-14 14,-8 20,-8"/>
</g>
<!-- synthsr -->
<g id="node1" class="node">
<title>synthsr</title>
<path fill="none" stroke="#9756d8" stroke-width="2" d="M317,-424C317,-424 287,-424 287,-424 281,-424 275,-418 275,-412 275,-412 275,-400 275,-400 275,-394 281,-388 287,-388 287,-388 317,-388 317,-388 323,-388 329,-394 329,-400 329,-400 329,-412 329,-412 329,-418 323,-424 317,-424"/>
<text text-anchor="middle" x="302" y="-403.5" font-family="sans" font-size="10.00">synthsr</text>
</g>
<!-- 3 -->
<g id="node5" class="node">
<title>3</title>
<path fill="none" stroke="#569ad8" stroke-width="2" d="M320,-352C320,-352 284,-352 284,-352 278,-352 272,-346 272,-340 272,-340 272,-328 272,-328 272,-322 278,-316 284,-316 284,-316 320,-316 320,-316 326,-316 332,-322 332,-328 332,-328 332,-340 332,-340 332,-346 326,-352 320,-352"/>
<text text-anchor="middle" x="302" y="-331.5" font-family="sans" font-size="10.00">norm_im</text>
</g>
<!-- synthsr&#45;&gt;3 -->
<g id="edge13" class="edge">
<title>synthsr&#45;&gt;3</title>
<path fill="none" stroke="grey" stroke-width="2" d="M302,-387.7C302,-379.98 302,-370.71 302,-362.11"/>
<polygon fill="grey" stroke="grey" stroke-width="2" points="305.5,-362.1 302,-352.1 298.5,-362.1 305.5,-362.1"/>
</g>
<!-- 6 -->
<g id="node7" class="node">
<title>6</title>
<path fill="none" stroke="#97d856" stroke-width="2" d="M231,-352C231,-352 181,-352 181,-352 175,-352 169,-346 169,-340 169,-340 169,-328 169,-328 169,-322 175,-316 181,-316 181,-316 231,-316 231,-316 237,-316 243,-322 243,-328 243,-328 243,-340 243,-340 243,-346 237,-352 231,-352"/>
<text text-anchor="middle" x="206" y="-331.5" font-family="sans" font-size="10.00">regmni2sub</text>
</g>
<!-- synthsr&#45;&gt;6 -->
<g id="edge14" class="edge">
<title>synthsr&#45;&gt;6</title>
<path fill="none" stroke="grey" stroke-width="2" d="M278.27,-387.7C266.06,-378.8 251.01,-367.82 237.82,-358.2"/>
<polygon fill="grey" stroke="grey" stroke-width="2" points="239.6,-355.17 229.46,-352.1 235.48,-360.82 239.6,-355.17"/>
</g>
<!-- 0 -->
<g id="node2" class="node">
<title>0</title>
<path fill="none" stroke="#56d8d8" stroke-width="2" d="M221,-64C221,-64 191,-64 191,-64 185,-64 179,-58 179,-52 179,-52 179,-40 179,-40 179,-34 185,-28 191,-28 191,-28 221,-28 221,-28 227,-28 233,-34 233,-40 233,-40 233,-52 233,-52 233,-58 227,-64 221,-64"/>
<text text-anchor="middle" x="206" y="-43.5" font-family="sans" font-size="10.00">all</text>
</g>
<!-- 1 -->
<g id="node3" class="node">
<title>1</title>
<path fill="none" stroke="#56d89a" stroke-width="2" d="M237,-208C237,-208 175,-208 175,-208 169,-208 163,-202 163,-196 163,-196 163,-184 163,-184 163,-178 169,-172 175,-172 175,-172 237,-172 237,-172 243,-172 249,-178 249,-184 249,-184 249,-196 249,-196 249,-202 243,-208 237,-208"/>
<text text-anchor="middle" x="206" y="-187.5" font-family="sans" font-size="10.00">applyfidmodel</text>
</g>
<!-- 1&#45;&gt;0 -->
<g id="edge2" class="edge">
<title>1&#45;&gt;0</title>
<path fill="none" stroke="grey" stroke-width="2" d="M199.35,-171.63C195.8,-161.42 191.8,-148.17 190,-136 187.66,-120.17 187.66,-115.83 190,-100 191.28,-91.35 193.67,-82.15 196.22,-73.89"/>
<polygon fill="grey" stroke="grey" stroke-width="2" points="199.55,-74.96 199.35,-64.37 192.9,-72.78 199.55,-74.96"/>
</g>
<!-- 8 -->
<g id="node9" class="node">
<title>8</title>
<path fill="none" stroke="#d8569c" stroke-width="2" d="M255.5,-136C255.5,-136 210.5,-136 210.5,-136 204.5,-136 198.5,-130 198.5,-124 198.5,-124 198.5,-112 198.5,-112 198.5,-106 204.5,-100 210.5,-100 210.5,-100 255.5,-100 255.5,-100 261.5,-100 267.5,-106 267.5,-112 267.5,-112 267.5,-124 267.5,-124 267.5,-130 261.5,-136 255.5,-136"/>
<text text-anchor="middle" x="233" y="-115.5" font-family="sans" font-size="10.00">stereotaxy</text>
</g>
<!-- 1&#45;&gt;8 -->
<g id="edge3" class="edge">
<title>1&#45;&gt;8</title>
<path fill="none" stroke="grey" stroke-width="2" d="M212.67,-171.7C215.71,-163.81 219.38,-154.3 222.76,-145.55"/>
<polygon fill="grey" stroke="grey" stroke-width="2" points="226.07,-146.69 226.4,-136.1 219.54,-144.17 226.07,-146.69"/>
</g>
<!-- 2 -->
<g id="node4" class="node">
<title>2</title>
<path fill="none" stroke="#d85656" stroke-width="2" d="M330,-280C330,-280 274,-280 274,-280 268,-280 262,-274 262,-268 262,-268 262,-256 262,-256 262,-250 268,-244 274,-244 274,-244 330,-244 330,-244 336,-244 342,-250 342,-256 342,-256 342,-268 342,-268 342,-274 336,-280 330,-280"/>
<text text-anchor="middle" x="302" y="-259.5" font-family="sans" font-size="10.00">resample_im</text>
</g>
<!-- 2&#45;&gt;1 -->
<g id="edge5" class="edge">
<title>2&#45;&gt;1</title>
<path fill="none" stroke="grey" stroke-width="2" d="M278.27,-243.7C266.06,-234.8 251.01,-223.82 237.82,-214.2"/>
<polygon fill="grey" stroke="grey" stroke-width="2" points="239.6,-211.17 229.46,-208.1 235.48,-216.82 239.6,-211.17"/>
</g>
<!-- 3&#45;&gt;2 -->
<g id="edge7" class="edge">
<title>3&#45;&gt;2</title>
<path fill="none" stroke="grey" stroke-width="2" d="M302,-315.7C302,-307.98 302,-298.71 302,-290.11"/>
<polygon fill="grey" stroke="grey" stroke-width="2" points="305.5,-290.1 302,-280.1 298.5,-290.1 305.5,-290.1"/>
</g>
<!-- 5 -->
<g id="node6" class="node">
<title>5</title>
<path fill="none" stroke="#d89556" stroke-width="2" d="M232,-280C232,-280 180,-280 180,-280 174,-280 168,-274 168,-268 168,-268 168,-256 168,-256 168,-250 174,-244 180,-244 180,-244 232,-244 232,-244 238,-244 244,-250 244,-256 244,-256 244,-268 244,-268 244,-274 238,-280 232,-280"/>
<text text-anchor="middle" x="206" y="-259.5" font-family="sans" font-size="10.00">mni2subfids</text>
</g>
<!-- 5&#45;&gt;1 -->
<g id="edge6" class="edge">
<title>5&#45;&gt;1</title>
<path fill="none" stroke="grey" stroke-width="2" d="M206,-243.7C206,-235.98 206,-226.71 206,-218.11"/>
<polygon fill="grey" stroke="grey" stroke-width="2" points="209.5,-218.1 206,-208.1 202.5,-218.1 209.5,-218.1"/>
</g>
<!-- 6&#45;&gt;5 -->
<g id="edge8" class="edge">
<title>6&#45;&gt;5</title>
<path fill="none" stroke="grey" stroke-width="2" d="M206,-315.7C206,-307.98 206,-298.71 206,-290.11"/>
<polygon fill="grey" stroke="grey" stroke-width="2" points="209.5,-290.1 206,-280.1 202.5,-290.1 209.5,-290.1"/>
</g>
<!-- 7 -->
<g id="node8" class="node">
<title>7</title>
<path fill="none" stroke="#59d856" stroke-width="2" d="M138,-280C138,-280 40,-280 40,-280 34,-280 28,-274 28,-268 28,-268 28,-256 28,-256 28,-250 34,-244 40,-244 40,-244 138,-244 138,-244 144,-244 150,-250 150,-256 150,-256 150,-268 150,-268 150,-274 144,-280 138,-280"/>
<text text-anchor="middle" x="89" y="-259.5" font-family="sans" font-size="10.00">download_cnn_model</text>
</g>
<!-- 7&#45;&gt;1 -->
<g id="edge1" class="edge">
<title>7&#45;&gt;1</title>
<path fill="none" stroke="grey" stroke-width="2" d="M117.62,-243.88C132.92,-234.72 151.94,-223.34 168.42,-213.48"/>
<polygon fill="grey" stroke="grey" stroke-width="2" points="170.48,-216.33 177.27,-208.19 166.89,-210.32 170.48,-216.33"/>
</g>
<!-- 8&#45;&gt;0 -->
<g id="edge4" class="edge">
<title>8&#45;&gt;0</title>
<path fill="none" stroke="grey" stroke-width="2" d="M226.33,-99.7C223.29,-91.81 219.62,-82.3 216.24,-73.55"/>
<polygon fill="grey" stroke="grey" stroke-width="2" points="219.46,-72.17 212.6,-64.1 212.93,-74.69 219.46,-72.17"/>
</g>
<!-- 4 -->
<g id="node10" class="node">
<title>4</title>
<path fill="none" stroke="#d6d856" stroke-width="2" d="M245,-424C245,-424 161,-424 161,-424 155,-424 149,-418 149,-412 149,-412 149,-400 149,-400 149,-394 155,-388 161,-388 161,-388 245,-388 245,-388 251,-388 257,-394 257,-400 257,-400 257,-412 257,-412 257,-418 251,-424 245,-424"/>
<text text-anchor="middle" x="203" y="-403.5" font-family="sans" font-size="10.00">n4_bias_correction</text>
</g>
<!-- 4&#45;&gt;6 -->
<g id="edge9" class="edge">
<title>4&#45;&gt;6</title>
<path fill="none" stroke="grey" stroke-width="2" d="M203.74,-387.7C204.07,-379.98 204.47,-370.71 204.84,-362.11"/>
<polygon fill="grey" stroke="grey" stroke-width="2" points="208.34,-362.25 205.27,-352.1 201.34,-361.95 208.34,-362.25"/>
</g>
<!-- T1w -->
<g id="node11" class="node">
<title>T1w</title>
<path fill="none" stroke="black" stroke-width="2" d="M218,-496C218,-496 188,-496 188,-496 182,-496 176,-490 176,-484 176,-484 176,-472 176,-472 176,-466 182,-460 188,-460 188,-460 218,-460 218,-460 224,-460 230,-466 230,-472 230,-472 230,-484 230,-484 230,-490 224,-496 218,-496"/>
<text text-anchor="middle" x="203" y="-475.5" font-family="sans" font-size="10.00">T1w</text>
</g>
<!-- T1w&#45;&gt;4 -->
<g id="edge10" class="edge">
<title>T1w&#45;&gt;4</title>
<path fill="none" stroke="grey" stroke-width="2" stroke-dasharray="5,2" d="M203,-459.7C203,-451.98 203,-442.71 203,-434.11"/>
<polygon fill="grey" stroke="grey" stroke-width="2" points="206.5,-434.1 203,-424.1 199.5,-434.1 206.5,-434.1"/>
</g>
<!-- T2w -->
<g id="node12" class="node">
<title>T2w</title>
<path fill="none" stroke="black" stroke-width="2" d="M303,-496C303,-496 273,-496 273,-496 267,-496 261,-490 261,-484 261,-484 261,-472 261,-472 261,-466 267,-460 273,-460 273,-460 303,-460 303,-460 309,-460 315,-466 315,-472 315,-472 315,-484 315,-484 315,-490 309,-496 303,-496"/>
<text text-anchor="middle" x="288" y="-475.5" font-family="sans" font-size="10.00">T2w</text>
</g>
<!-- T2w&#45;&gt;synthsr -->
<g id="edge11" class="edge">
<title>T2w&#45;&gt;synthsr</title>
<path fill="none" stroke="grey" stroke-width="2" stroke-dasharray="5,2" d="M291.46,-459.7C293,-451.98 294.86,-442.71 296.58,-434.11"/>
<polygon fill="grey" stroke="grey" stroke-width="2" points="300.05,-434.6 298.58,-424.1 293.19,-433.22 300.05,-434.6"/>
</g>
<!-- FLAIR -->
<g id="node13" class="node">
<title>FLAIR</title>
<path fill="none" stroke="black" stroke-width="2" d="M375,-496C375,-496 345,-496 345,-496 339,-496 333,-490 333,-484 333,-484 333,-472 333,-472 333,-466 339,-460 345,-460 345,-460 375,-460 375,-460 381,-460 387,-466 387,-472 387,-472 387,-484 387,-484 387,-490 381,-496 375,-496"/>
<text text-anchor="middle" x="360" y="-475.5" font-family="sans" font-size="10.00">FLAIR</text>
</g>
<!-- FLAIR&#45;&gt;synthsr -->
<g id="edge12" class="edge">
<title>FLAIR&#45;&gt;synthsr</title>
<path fill="none" stroke="grey" stroke-width="2" stroke-dasharray="5,2" d="M345.66,-459.7C338.71,-451.3 330.23,-441.07 322.6,-431.86"/>
<polygon fill="grey" stroke="grey" stroke-width="2" points="325.25,-429.57 316.17,-424.1 319.86,-434.04 325.25,-429.57"/>
</g>
</g>
</svg>
