<?xml version="1.0" encoding="UTF-8" standalone="no"?>
<!DOCTYPE svg PUBLIC "-//W3C//DTD SVG 1.1//EN"
 "http://www.w3.org/Graphics/SVG/1.1/DTD/svg11.dtd">
<!-- Generated by graphviz version 2.43.0 (0)
 -->
<!-- Title: snakemake_dag Pages: 1 -->
<svg width="307pt" height="332pt"
 viewBox="0.00 0.00 307.00 332.00" xmlns="http://www.w3.org/2000/svg" xmlns:xlink="http://www.w3.org/1999/xlink">
<g id="graph0" class="graph" transform="scale(1 1) rotate(0) translate(4 328)">
<title>snakemake_dag</title>
<polygon fill="white" stroke="transparent" points="-4,4 -4,-328 303,-328 303,4 -4,4"/>
<!-- 0 -->
<g id="node1" class="node">
<title>0</title>
<path fill="none" stroke="#d8cb56" stroke-width="2" d="M151,-36C151,-36 121,-36 121,-36 115,-36 109,-30 109,-24 109,-24 109,-12 109,-12 109,-6 115,0 121,0 121,0 151,0 151,0 157,0 163,-6 163,-12 163,-12 163,-24 163,-24 163,-30 157,-36 151,-36"/>
<text text-anchor="middle" x="136" y="-15.5" font-family="sans" font-size="10.00">all</text>
</g>
<!-- 1 -->
<g id="node2" class="node">
<title>1</title>
<path fill="none" stroke="#70d856" stroke-width="2" d="M154,-108C154,-108 118,-108 118,-108 112,-108 106,-102 106,-96 106,-96 106,-84 106,-84 106,-78 112,-72 118,-72 118,-72 154,-72 154,-72 160,-72 166,-78 166,-84 166,-84 166,-96 166,-96 166,-102 160,-108 154,-108"/>
<text text-anchor="middle" x="136" y="-87.5" font-family="sans" font-size="10.00">gen_fcsv</text>
</g>
<!-- 1&#45;&gt;0 -->
<g id="edge1" class="edge">
<title>1&#45;&gt;0</title>
<path fill="none" stroke="grey" stroke-width="2" d="M136,-71.7C136,-63.98 136,-54.71 136,-46.11"/>
<polygon fill="grey" stroke="grey" stroke-width="2" points="139.5,-46.1 136,-36.1 132.5,-46.1 139.5,-46.1"/>
</g>
<!-- 2 -->
<g id="node3" class="node">
<title>2</title>
<path fill="none" stroke="#d85656" stroke-width="2" d="M68,-180C68,-180 12,-180 12,-180 6,-180 0,-174 0,-168 0,-168 0,-156 0,-156 0,-150 6,-144 12,-144 12,-144 68,-144 68,-144 74,-144 80,-150 80,-156 80,-156 80,-168 80,-168 80,-174 74,-180 68,-180"/>
<text text-anchor="middle" x="40" y="-159.5" font-family="sans" font-size="10.00">resample_im</text>
</g>
<!-- 2&#45;&gt;1 -->
<g id="edge2" class="edge">
<title>2&#45;&gt;1</title>
<path fill="none" stroke="grey" stroke-width="2" d="M63.73,-143.7C75.94,-134.8 90.99,-123.82 104.18,-114.2"/>
<polygon fill="grey" stroke="grey" stroke-width="2" points="106.52,-116.82 112.54,-108.1 102.4,-111.17 106.52,-116.82"/>
</g>
<!-- 3 -->
<g id="node4" class="node">
<title>3</title>
<path fill="none" stroke="#5692d8" stroke-width="2" d="M61,-252C61,-252 25,-252 25,-252 19,-252 13,-246 13,-240 13,-240 13,-228 13,-228 13,-222 19,-216 25,-216 25,-216 61,-216 61,-216 67,-216 73,-222 73,-228 73,-228 73,-240 73,-240 73,-246 67,-252 61,-252"/>
<text text-anchor="middle" x="43" y="-231.5" font-family="sans" font-size="10.00">norm_im</text>
</g>
<!-- 3&#45;&gt;2 -->
<g id="edge5" class="edge">
<title>3&#45;&gt;2</title>
<path fill="none" stroke="grey" stroke-width="2" d="M42.26,-215.7C41.93,-207.98 41.53,-198.71 41.16,-190.11"/>
<polygon fill="grey" stroke="grey" stroke-width="2" points="44.66,-189.95 40.73,-180.1 37.66,-190.25 44.66,-189.95"/>
</g>
<!-- 4 -->
<g id="node5" class="node">
<title>4</title>
<path fill="none" stroke="#56d873" stroke-width="2" d="M124,-324C124,-324 40,-324 40,-324 34,-324 28,-318 28,-312 28,-312 28,-300 28,-300 28,-294 34,-288 40,-288 40,-288 124,-288 124,-288 130,-288 136,-294 136,-300 136,-300 136,-312 136,-312 136,-318 130,-324 124,-324"/>
<text text-anchor="middle" x="82" y="-303.5" font-family="sans" font-size="10.00">n4_bias_correction</text>
</g>
<!-- 4&#45;&gt;3 -->
<g id="edge6" class="edge">
<title>4&#45;&gt;3</title>
<path fill="none" stroke="grey" stroke-width="2" d="M72.36,-287.7C67.87,-279.64 62.44,-269.89 57.48,-260.98"/>
<polygon fill="grey" stroke="grey" stroke-width="2" points="60.45,-259.14 52.53,-252.1 54.34,-262.54 60.45,-259.14"/>
</g>
<!-- 8 -->
<g id="node9" class="node">
<title>8</title>
<path fill="none" stroke="#d88d56" stroke-width="2" d="M143.5,-252C143.5,-252 108.5,-252 108.5,-252 102.5,-252 96.5,-246 96.5,-240 96.5,-240 96.5,-228 96.5,-228 96.5,-222 102.5,-216 108.5,-216 108.5,-216 143.5,-216 143.5,-216 149.5,-216 155.5,-222 155.5,-228 155.5,-228 155.5,-240 155.5,-240 155.5,-246 149.5,-252 143.5,-252"/>
<text text-anchor="middle" x="126" y="-231.5" font-family="sans" font-size="10.00">mni2sub</text>
</g>
<!-- 4&#45;&gt;8 -->
<g id="edge9" class="edge">
<title>4&#45;&gt;8</title>
<path fill="none" stroke="grey" stroke-width="2" d="M92.88,-287.7C97.99,-279.56 104.2,-269.69 109.84,-260.7"/>
<polygon fill="grey" stroke="grey" stroke-width="2" points="112.89,-262.43 115.25,-252.1 106.96,-258.71 112.89,-262.43"/>
</g>
<!-- 5 -->
<g id="node6" class="node">
<title>5</title>
<path fill="none" stroke="#56c9d8" stroke-width="2" stroke-dasharray="5,2" d="M272,-180C272,-180 204,-180 204,-180 198,-180 192,-174 192,-168 192,-168 192,-156 192,-156 192,-150 198,-144 204,-144 204,-144 272,-144 272,-144 278,-144 284,-150 284,-156 284,-156 284,-168 284,-168 284,-174 278,-180 272,-180"/>
<text text-anchor="middle" x="238" y="-159.5" font-family="sans" font-size="10.00">extract_models</text>
</g>
<!-- 5&#45;&gt;1 -->
<g id="edge3" class="edge">
<title>5&#45;&gt;1</title>
<path fill="none" stroke="grey" stroke-width="2" d="M213.05,-143.88C199.96,-134.89 183.74,-123.76 169.56,-114.03"/>
<polygon fill="grey" stroke="grey" stroke-width="2" points="171.27,-110.96 161.05,-108.19 167.31,-116.73 171.27,-110.96"/>
</g>
<!-- 6 -->
<g id="node7" class="node">
<title>6</title>
<path fill="none" stroke="#afd856" stroke-width="2" stroke-dasharray="5,2" d="M287,-252C287,-252 189,-252 189,-252 183,-252 177,-246 177,-240 177,-240 177,-228 177,-228 177,-222 183,-216 189,-216 189,-216 287,-216 287,-216 293,-216 299,-222 299,-228 299,-228 299,-240 299,-240 299,-246 293,-252 287,-252"/>
<text text-anchor="middle" x="238" y="-231.5" font-family="sans" font-size="10.00">download_cnn_model</text>
</g>
<!-- 6&#45;&gt;5 -->
<g id="edge7" class="edge">
<title>6&#45;&gt;5</title>
<path fill="none" stroke="grey" stroke-width="2" d="M238,-215.7C238,-207.98 238,-198.71 238,-190.11"/>
<polygon fill="grey" stroke="grey" stroke-width="2" points="241.5,-190.1 238,-180.1 234.5,-190.1 241.5,-190.1"/>
</g>
<!-- 7 -->
<g id="node8" class="node">
<title>7</title>
<path fill="none" stroke="#56d8a9" stroke-width="2" d="M162,-180C162,-180 110,-180 110,-180 104,-180 98,-174 98,-168 98,-168 98,-156 98,-156 98,-150 104,-144 110,-144 110,-144 162,-144 162,-144 168,-144 174,-150 174,-156 174,-156 174,-168 174,-168 174,-174 168,-180 162,-180"/>
<text text-anchor="middle" x="136" y="-159.5" font-family="sans" font-size="10.00">mni2subfids</text>
</g>
<!-- 7&#45;&gt;1 -->
<g id="edge4" class="edge">
<title>7&#45;&gt;1</title>
<path fill="none" stroke="grey" stroke-width="2" d="M136,-143.7C136,-135.98 136,-126.71 136,-118.11"/>
<polygon fill="grey" stroke="grey" stroke-width="2" points="139.5,-118.1 136,-108.1 132.5,-118.1 139.5,-118.1"/>
</g>
<!-- 8&#45;&gt;7 -->
<g id="edge8" class="edge">
<title>8&#45;&gt;7</title>
<path fill="none" stroke="grey" stroke-width="2" d="M128.47,-215.7C129.57,-207.98 130.9,-198.71 132.13,-190.11"/>
<polygon fill="grey" stroke="grey" stroke-width="2" points="135.61,-190.5 133.56,-180.1 128.68,-189.51 135.61,-190.5"/>
</g>
</g>
</svg>
