<?xml version="1.0" encoding="UTF-8" standalone="no"?>
<!DOCTYPE svg PUBLIC "-//W3C//DTD SVG 1.1//EN"
 "http://www.w3.org/Graphics/SVG/1.1/DTD/svg11.dtd">
<!-- Generated by graphviz version 2.43.0 (0)
 -->
<!-- Title: snakemake_dag Pages: 1 -->
<svg width="440pt" height="547pt"
 viewBox="21.60 21.60 418.60 525.60" xmlns="http://www.w3.org/2000/svg" xmlns:xlink="http://www.w3.org/1999/xlink">
<g id="graph0" class="graph" transform="scale(1 1) rotate(0) translate(25.6 521.6)">
<title>snakemake_dag</title>
<polygon fill="white" stroke="transparent" points="-4,4 -4,-500 393,-500 393,4 -4,4"/>
<g id="clust1" class="cluster">
<title>cluster_workflow</title>
<path fill="white" stroke="black" d="M20,-8C20,-8 350,-8 350,-8 356,-8 362,-14 362,-20 362,-20 362,-360 362,-360 362,-366 356,-372 350,-372 350,-372 20,-372 20,-372 14,-372 8,-366 8,-360 8,-360 8,-20 8,-20 8,-14 14,-8 20,-8"/>
</g>
<!-- synthsr -->
<g id="node1" class="node">
<title>synthsr</title>
<path fill="none" stroke="#9756d8" stroke-width="2" d="M319,-424C319,-424 289,-424 289,-424 283,-424 277,-418 277,-412 277,-412 277,-400 277,-400 277,-394 283,-388 289,-388 289,-388 319,-388 319,-388 325,-388 331,-394 331,-400 331,-400 331,-412 331,-412 331,-418 325,-424 319,-424"/>
<text text-anchor="middle" x="304" y="-403.5" font-family="sans" font-size="10.00">synthsr</text>
</g>
<!-- 3 -->
<g id="node5" class="node">
<title>3</title>
<path fill="none" stroke="#569ad8" stroke-width="2" d="M320,-352C320,-352 284,-352 284,-352 278,-352 272,-346 272,-340 272,-340 272,-328 272,-328 272,-322 278,-316 284,-316 284,-316 320,-316 320,-316 326,-316 332,-322 332,-328 332,-328 332,-340 332,-340 332,-346 326,-352 320,-352"/>
<text text-anchor="middle" x="302" y="-331.5" font-family="sans" font-size="10.00">norm_im</text>
</g>
<!-- synthsr&#45;&gt;3 -->
<g id="edge14" class="edge">
<title>synthsr&#45;&gt;3</title>
<path fill="none" stroke="grey" stroke-width="2" d="M303.51,-387.7C303.29,-379.98 303.02,-370.71 302.77,-362.11"/>
<polygon fill="grey" stroke="grey" stroke-width="2" points="306.27,-362 302.49,-352.1 299.28,-362.2 306.27,-362"/>
</g>
<!-- 6 -->
<g id="node7" class="node">
<title>6</title>
<path fill="none" stroke="#97d856" stroke-width="2" d="M231,-352C231,-352 181,-352 181,-352 175,-352 169,-346 169,-340 169,-340 169,-328 169,-328 169,-322 175,-316 181,-316 181,-316 231,-316 231,-316 237,-316 243,-322 243,-328 243,-328 243,-340 243,-340 243,-346 237,-352 231,-352"/>
<text text-anchor="middle" x="206" y="-331.5" font-family="sans" font-size="10.00">regmni2sub</text>
</g>
<!-- synthsr&#45;&gt;6 -->
<g id="edge15" class="edge">
<title>synthsr&#45;&gt;6</title>
<path fill="none" stroke="grey" stroke-width="2" d="M280.03,-387.88C267.45,-378.89 251.87,-367.76 238.25,-358.03"/>
<polygon fill="grey" stroke="grey" stroke-width="2" points="240.24,-355.15 230.07,-352.19 236.17,-360.85 240.24,-355.15"/>
</g>
<!-- 0 -->
<g id="node2" class="node">
<title>0</title>
<path fill="none" stroke="#56d8d8" stroke-width="2" d="M221,-64C221,-64 191,-64 191,-64 185,-64 179,-58 179,-52 179,-52 179,-40 179,-40 179,-34 185,-28 191,-28 191,-28 221,-28 221,-28 227,-28 233,-34 233,-40 233,-40 233,-52 233,-52 233,-58 227,-64 221,-64"/>
<text text-anchor="middle" x="206" y="-43.5" font-family="sans" font-size="10.00">all</text>
</g>
<!-- 1 -->
<g id="node3" class="node">
<title>1</title>
<path fill="none" stroke="#56d89a" stroke-width="2" d="M237,-208C237,-208 175,-208 175,-208 169,-208 163,-202 163,-196 163,-196 163,-184 163,-184 163,-178 169,-172 175,-172 175,-172 237,-172 237,-172 243,-172 249,-178 249,-184 249,-184 249,-196 249,-196 249,-202 243,-208 237,-208"/>
<text text-anchor="middle" x="206" y="-187.5" font-family="sans" font-size="10.00">applyfidmodel</text>
</g>
<!-- 1&#45;&gt;0 -->
<g id="edge2" class="edge">
<title>1&#45;&gt;0</title>
<path fill="none" stroke="grey" stroke-width="2" d="M199.35,-171.63C195.8,-161.42 191.8,-148.17 190,-136 187.66,-120.17 187.66,-115.83 190,-100 191.28,-91.35 193.67,-82.15 196.22,-73.89"/>
<polygon fill="grey" stroke="grey" stroke-width="2" points="199.55,-74.96 199.35,-64.37 192.9,-72.78 199.55,-74.96"/>
</g>
<!-- 8 -->
<g id="node9" class="node">
<title>8</title>
<path fill="none" stroke="#d8569c" stroke-width="2" d="M255.5,-136C255.5,-136 210.5,-136 210.5,-136 204.5,-136 198.5,-130 198.5,-124 198.5,-124 198.5,-112 198.5,-112 198.5,-106 204.5,-100 210.5,-100 210.5,-100 255.5,-100 255.5,-100 261.5,-100 267.5,-106 267.5,-112 267.5,-112 267.5,-124 267.5,-124 267.5,-130 261.5,-136 255.5,-136"/>
<text text-anchor="middle" x="233" y="-115.5" font-family="sans" font-size="10.00">stereotaxy</text>
</g>
<!-- 1&#45;&gt;8 -->
<g id="edge3" class="edge">
<title>1&#45;&gt;8</title>
<path fill="none" stroke="grey" stroke-width="2" d="M212.67,-171.7C215.71,-163.81 219.38,-154.3 222.76,-145.55"/>
<polygon fill="grey" stroke="grey" stroke-width="2" points="226.07,-146.69 226.4,-136.1 219.54,-144.17 226.07,-146.69"/>
</g>
<!-- 2 -->
<g id="node4" class="node">
<title>2</title>
<path fill="none" stroke="#d85656" stroke-width="2" d="M330,-280C330,-280 274,-280 274,-280 268,-280 262,-274 262,-268 262,-268 262,-256 262,-256 262,-250 268,-244 274,-244 274,-244 330,-244 330,-244 336,-244 342,-250 342,-256 342,-256 342,-268 342,-268 342,-274 336,-280 330,-280"/>
<text text-anchor="middle" x="302" y="-259.5" font-family="sans" font-size="10.00">resample_im</text>
</g>
<!-- 2&#45;&gt;1 -->
<g id="edge5" class="edge">
<title>2&#45;&gt;1</title>
<path fill="none" stroke="grey" stroke-width="2" d="M278.27,-243.7C266.06,-234.8 251.01,-223.82 237.82,-214.2"/>
<polygon fill="grey" stroke="grey" stroke-width="2" points="239.6,-211.17 229.46,-208.1 235.48,-216.82 239.6,-211.17"/>
</g>
<!-- 3&#45;&gt;2 -->
<g id="edge7" class="edge">
<title>3&#45;&gt;2</title>
<path fill="none" stroke="grey" stroke-width="2" d="M302,-315.7C302,-307.98 302,-298.71 302,-290.11"/>
<polygon fill="grey" stroke="grey" stroke-width="2" points="305.5,-290.1 302,-280.1 298.5,-290.1 305.5,-290.1"/>
</g>
<!-- 5 -->
<g id="node6" class="node">
<title>5</title>
<path fill="none" stroke="#d89556" stroke-width="2" d="M232,-280C232,-280 180,-280 180,-280 174,-280 168,-274 168,-268 168,-268 168,-256 168,-256 168,-250 174,-244 180,-244 180,-244 232,-244 232,-244 238,-244 244,-250 244,-256 244,-256 244,-268 244,-268 244,-274 238,-280 232,-280"/>
<text text-anchor="middle" x="206" y="-259.5" font-family="sans" font-size="10.00">mni2subfids</text>
</g>
<!-- 5&#45;&gt;1 -->
<g id="edge6" class="edge">
<title>5&#45;&gt;1</title>
<path fill="none" stroke="grey" stroke-width="2" d="M206,-243.7C206,-235.98 206,-226.71 206,-218.11"/>
<polygon fill="grey" stroke="grey" stroke-width="2" points="209.5,-218.1 206,-208.1 202.5,-218.1 209.5,-218.1"/>
</g>
<!-- 6&#45;&gt;5 -->
<g id="edge8" class="edge">
<title>6&#45;&gt;5</title>
<path fill="none" stroke="grey" stroke-width="2" d="M206,-315.7C206,-307.98 206,-298.71 206,-290.11"/>
<polygon fill="grey" stroke="grey" stroke-width="2" points="209.5,-290.1 206,-280.1 202.5,-290.1 209.5,-290.1"/>
</g>
<!-- 7 -->
<g id="node8" class="node">
<title>7</title>
<path fill="none" stroke="#59d856" stroke-width="2" d="M138,-280C138,-280 40,-280 40,-280 34,-280 28,-274 28,-268 28,-268 28,-256 28,-256 28,-250 34,-244 40,-244 40,-244 138,-244 138,-244 144,-244 150,-250 150,-256 150,-256 150,-268 150,-268 150,-274 144,-280 138,-280"/>
<text text-anchor="middle" x="89" y="-259.5" font-family="sans" font-size="10.00">download_cnn_model</text>
</g>
<!-- 7&#45;&gt;1 -->
<g id="edge1" class="edge">
<title>7&#45;&gt;1</title>
<path fill="none" stroke="grey" stroke-width="2" d="M117.62,-243.88C132.92,-234.72 151.94,-223.34 168.42,-213.48"/>
<polygon fill="grey" stroke="grey" stroke-width="2" points="170.48,-216.33 177.27,-208.19 166.89,-210.32 170.48,-216.33"/>
</g>
<!-- 8&#45;&gt;0 -->
<g id="edge4" class="edge">
<title>8&#45;&gt;0</title>
<path fill="none" stroke="grey" stroke-width="2" d="M226.33,-99.7C223.29,-91.81 219.62,-82.3 216.24,-73.55"/>
<polygon fill="grey" stroke="grey" stroke-width="2" points="219.46,-72.17 212.6,-64.1 212.93,-74.69 219.46,-72.17"/>
</g>
<!-- 4 -->
<g id="node10" class="node">
<title>4</title>
<path fill="none" stroke="#d6d856" stroke-width="2" d="M247,-424C247,-424 163,-424 163,-424 157,-424 151,-418 151,-412 151,-412 151,-400 151,-400 151,-394 157,-388 163,-388 163,-388 247,-388 247,-388 253,-388 259,-394 259,-400 259,-400 259,-412 259,-412 259,-418 253,-424 247,-424"/>
<text text-anchor="middle" x="205" y="-403.5" font-family="sans" font-size="10.00">n4_bias_correction</text>
</g>
<!-- 4&#45;&gt;3 -->
<g id="edge10" class="edge">
<title>4&#45;&gt;3</title>
<path fill="none" stroke="grey" stroke-width="2" d="M229.48,-387.99C236.75,-382.88 244.72,-377.25 252,-372 258.14,-367.57 264.67,-362.79 270.92,-358.19"/>
<polygon fill="grey" stroke="grey" stroke-width="2" points="273.23,-360.83 279.19,-352.07 269.07,-355.2 273.23,-360.83"/>
</g>
<!-- 4&#45;&gt;6 -->
<g id="edge9" class="edge">
<title>4&#45;&gt;6</title>
<path fill="none" stroke="grey" stroke-width="2" d="M205.25,-387.7C205.36,-379.98 205.49,-370.71 205.61,-362.11"/>
<polygon fill="grey" stroke="grey" stroke-width="2" points="209.11,-362.15 205.76,-352.1 202.11,-362.05 209.11,-362.15"/>
</g>
<!-- T1w -->
<g id="node11" class="node">
<title>T1w</title>
<path fill="none" stroke="black" stroke-width="2" d="M220,-496C220,-496 190,-496 190,-496 184,-496 178,-490 178,-484 178,-484 178,-472 178,-472 178,-466 184,-460 190,-460 190,-460 220,-460 220,-460 226,-460 232,-466 232,-472 232,-472 232,-484 232,-484 232,-490 226,-496 220,-496"/>
<text text-anchor="middle" x="205" y="-475.5" font-family="sans" font-size="10.00">T1w</text>
</g>
<!-- T1w&#45;&gt;4 -->
<g id="edge11" class="edge">
<title>T1w&#45;&gt;4</title>
<path fill="none" stroke="grey" stroke-width="2" stroke-dasharray="5,2" d="M205,-459.7C205,-451.98 205,-442.71 205,-434.11"/>
<polygon fill="grey" stroke="grey" stroke-width="2" points="208.5,-434.1 205,-424.1 201.5,-434.1 208.5,-434.1"/>
</g>
<!-- T2w -->
<g id="node12" class="node">
<title>T2w</title>
<path fill="none" stroke="black" stroke-width="2" d="M305,-496C305,-496 275,-496 275,-496 269,-496 263,-490 263,-484 263,-484 263,-472 263,-472 263,-466 269,-460 275,-460 275,-460 305,-460 305,-460 311,-460 317,-466 317,-472 317,-472 317,-484 317,-484 317,-490 311,-496 305,-496"/>
<text text-anchor="middle" x="290" y="-475.5" font-family="sans" font-size="10.00">T2w</text>
</g>
<!-- T2w&#45;&gt;synthsr -->
<g id="edge12" class="edge">
<title>T2w&#45;&gt;synthsr</title>
<path fill="none" stroke="grey" stroke-width="2" stroke-dasharray="5,2" d="M293.46,-459.7C295,-451.98 296.86,-442.71 298.58,-434.11"/>
<polygon fill="grey" stroke="grey" stroke-width="2" points="302.05,-434.6 300.58,-424.1 295.19,-433.22 302.05,-434.6"/>
</g>
<!-- FLAIR -->
<g id="node13" class="node">
<title>FLAIR</title>
<path fill="none" stroke="black" stroke-width="2" d="M377,-496C377,-496 347,-496 347,-496 341,-496 335,-490 335,-484 335,-484 335,-472 335,-472 335,-466 341,-460 347,-460 347,-460 377,-460 377,-460 383,-460 389,-466 389,-472 389,-472 389,-484 389,-484 389,-490 383,-496 377,-496"/>
<text text-anchor="middle" x="362" y="-475.5" font-family="sans" font-size="10.00">FLAIR</text>
</g>
<!-- FLAIR&#45;&gt;synthsr -->
<g id="edge13" class="edge">
<title>FLAIR&#45;&gt;synthsr</title>
<path fill="none" stroke="grey" stroke-width="2" stroke-dasharray="5,2" d="M347.66,-459.7C340.71,-451.3 332.23,-441.07 324.6,-431.86"/>
<polygon fill="grey" stroke="grey" stroke-width="2" points="327.25,-429.57 318.17,-424.1 321.86,-434.04 327.25,-429.57"/>
</g>
</g>
</svg>
