<?xml version="1.0" encoding="UTF-8" standalone="no"?>
<!DOCTYPE svg PUBLIC "-//W3C//DTD SVG 1.1//EN"
 "http://www.w3.org/Graphics/SVG/1.1/DTD/svg11.dtd">
<!-- Generated by graphviz version 2.43.0 (0)
 -->
<!-- Title: snakemake_dag Pages: 1 -->
<svg width="322pt" height="404pt"
 viewBox="0.00 0.00 322.00 404.00" xmlns="http://www.w3.org/2000/svg" xmlns:xlink="http://www.w3.org/1999/xlink">
<g id="graph0" class="graph" transform="scale(1 1) rotate(0) translate(4 400)">
<title>snakemake_dag</title>
<polygon fill="white" stroke="transparent" points="-4,4 -4,-400 318,-400 318,4 -4,4"/>
<!-- 0 -->
<g id="node1" class="node">
<title>0</title>
<path fill="none" stroke="#70d856" stroke-width="2" stroke-dasharray="5,2" d="M151,-36C151,-36 121,-36 121,-36 115,-36 109,-30 109,-24 109,-24 109,-12 109,-12 109,-6 115,0 121,0 121,0 151,0 151,0 157,0 163,-6 163,-12 163,-12 163,-24 163,-24 163,-30 157,-36 151,-36"/>
<text text-anchor="middle" x="136" y="-15.5" font-family="sans" font-size="10.00">all</text>
</g>
<!-- 1 -->
<g id="node2" class="node">
<title>1</title>
<path fill="none" stroke="#afd856" stroke-width="2" stroke-dasharray="5,2" d="M154,-180C154,-180 118,-180 118,-180 112,-180 106,-174 106,-168 106,-168 106,-156 106,-156 106,-150 112,-144 118,-144 118,-144 154,-144 154,-144 160,-144 166,-150 166,-156 166,-156 166,-168 166,-168 166,-174 160,-180 154,-180"/>
<text text-anchor="middle" x="136" y="-159.5" font-family="sans" font-size="10.00">gen_fcsv</text>
</g>
<!-- 1&#45;&gt;0 -->
<g id="edge1" class="edge">
<title>1&#45;&gt;0</title>
<path fill="none" stroke="grey" stroke-width="2" d="M132.75,-143.89C130.95,-133.54 128.91,-120.06 128,-108 126.8,-92.04 126.8,-87.96 128,-72 128.64,-63.52 129.84,-54.34 131.12,-46.04"/>
<polygon fill="grey" stroke="grey" stroke-width="2" points="134.58,-46.55 132.75,-36.11 127.68,-45.41 134.58,-46.55"/>
</g>
<!-- 8 -->
<g id="node9" class="node">
<title>8</title>
<path fill="none" stroke="#d85656" stroke-width="2" stroke-dasharray="5,2" d="M179,-108C179,-108 149,-108 149,-108 143,-108 137,-102 137,-96 137,-96 137,-84 137,-84 137,-78 143,-72 149,-72 149,-72 179,-72 179,-72 185,-72 191,-78 191,-84 191,-84 191,-96 191,-96 191,-102 185,-108 179,-108"/>
<text text-anchor="middle" x="164" y="-87.5" font-family="sans" font-size="10.00">fidqc</text>
</g>
<!-- 1&#45;&gt;8 -->
<g id="edge10" class="edge">
<title>1&#45;&gt;8</title>
<path fill="none" stroke="grey" stroke-width="2" d="M142.92,-143.7C146.07,-135.81 149.88,-126.3 153.38,-117.55"/>
<polygon fill="grey" stroke="grey" stroke-width="2" points="156.69,-118.69 157.16,-108.1 150.19,-116.09 156.69,-118.69"/>
</g>
<!-- 2 -->
<g id="node3" class="node">
<title>2</title>
<path fill="none" stroke="#5692d8" stroke-width="2" stroke-dasharray="5,2" d="M68,-252C68,-252 12,-252 12,-252 6,-252 0,-246 0,-240 0,-240 0,-228 0,-228 0,-222 6,-216 12,-216 12,-216 68,-216 68,-216 74,-216 80,-222 80,-228 80,-228 80,-240 80,-240 80,-246 74,-252 68,-252"/>
<text text-anchor="middle" x="40" y="-231.5" font-family="sans" font-size="10.00">resample_im</text>
</g>
<!-- 2&#45;&gt;1 -->
<g id="edge3" class="edge">
<title>2&#45;&gt;1</title>
<path fill="none" stroke="grey" stroke-width="2" d="M63.73,-215.7C75.94,-206.8 90.99,-195.82 104.18,-186.2"/>
<polygon fill="grey" stroke="grey" stroke-width="2" points="106.52,-188.82 112.54,-180.1 102.4,-183.17 106.52,-188.82"/>
</g>
<!-- 3 -->
<g id="node4" class="node">
<title>3</title>
<path fill="none" stroke="#d8cb56" stroke-width="2" stroke-dasharray="5,2" d="M67,-324C67,-324 31,-324 31,-324 25,-324 19,-318 19,-312 19,-312 19,-300 19,-300 19,-294 25,-288 31,-288 31,-288 67,-288 67,-288 73,-288 79,-294 79,-300 79,-300 79,-312 79,-312 79,-318 73,-324 67,-324"/>
<text text-anchor="middle" x="49" y="-303.5" font-family="sans" font-size="10.00">norm_im</text>
</g>
<!-- 3&#45;&gt;2 -->
<g id="edge6" class="edge">
<title>3&#45;&gt;2</title>
<path fill="none" stroke="grey" stroke-width="2" d="M46.78,-287.7C45.78,-279.98 44.59,-270.71 43.49,-262.11"/>
<polygon fill="grey" stroke="grey" stroke-width="2" points="46.95,-261.58 42.2,-252.1 40,-262.47 46.95,-261.58"/>
</g>
<!-- 4 -->
<g id="node5" class="node">
<title>4</title>
<path fill="none" stroke="#56d873" stroke-width="2" stroke-dasharray="5,2" d="M130,-396C130,-396 46,-396 46,-396 40,-396 34,-390 34,-384 34,-384 34,-372 34,-372 34,-366 40,-360 46,-360 46,-360 130,-360 130,-360 136,-360 142,-366 142,-372 142,-372 142,-384 142,-384 142,-390 136,-396 130,-396"/>
<text text-anchor="middle" x="88" y="-375.5" font-family="sans" font-size="10.00">n4_bias_correction</text>
</g>
<!-- 4&#45;&gt;3 -->
<g id="edge7" class="edge">
<title>4&#45;&gt;3</title>
<path fill="none" stroke="grey" stroke-width="2" d="M78.36,-359.7C73.87,-351.64 68.44,-341.89 63.48,-332.98"/>
<polygon fill="grey" stroke="grey" stroke-width="2" points="66.45,-331.14 58.53,-324.1 60.34,-334.54 66.45,-331.14"/>
</g>
<!-- 6 -->
<g id="node7" class="node">
<title>6</title>
<path fill="none" stroke="#d88d56" stroke-width="2" stroke-dasharray="5,2" d="M148.5,-324C148.5,-324 113.5,-324 113.5,-324 107.5,-324 101.5,-318 101.5,-312 101.5,-312 101.5,-300 101.5,-300 101.5,-294 107.5,-288 113.5,-288 113.5,-288 148.5,-288 148.5,-288 154.5,-288 160.5,-294 160.5,-300 160.5,-300 160.5,-312 160.5,-312 160.5,-318 154.5,-324 148.5,-324"/>
<text text-anchor="middle" x="131" y="-303.5" font-family="sans" font-size="10.00">mni2sub</text>
</g>
<!-- 4&#45;&gt;6 -->
<g id="edge9" class="edge">
<title>4&#45;&gt;6</title>
<path fill="none" stroke="grey" stroke-width="2" d="M98.63,-359.7C103.63,-351.56 109.69,-341.69 115.21,-332.7"/>
<polygon fill="grey" stroke="grey" stroke-width="2" points="118.24,-334.46 120.49,-324.1 112.28,-330.79 118.24,-334.46"/>
</g>
<!-- 5 -->
<g id="node6" class="node">
<title>5</title>
<path fill="none" stroke="#56d8a9" stroke-width="2" stroke-dasharray="5,2" d="M162,-252C162,-252 110,-252 110,-252 104,-252 98,-246 98,-240 98,-240 98,-228 98,-228 98,-222 104,-216 110,-216 110,-216 162,-216 162,-216 168,-216 174,-222 174,-228 174,-228 174,-240 174,-240 174,-246 168,-252 162,-252"/>
<text text-anchor="middle" x="136" y="-231.5" font-family="sans" font-size="10.00">mni2subfids</text>
</g>
<!-- 5&#45;&gt;1 -->
<g id="edge4" class="edge">
<title>5&#45;&gt;1</title>
<path fill="none" stroke="grey" stroke-width="2" d="M136,-215.7C136,-207.98 136,-198.71 136,-190.11"/>
<polygon fill="grey" stroke="grey" stroke-width="2" points="139.5,-190.1 136,-180.1 132.5,-190.1 139.5,-190.1"/>
</g>
<!-- 6&#45;&gt;5 -->
<g id="edge8" class="edge">
<title>6&#45;&gt;5</title>
<path fill="none" stroke="grey" stroke-width="2" d="M132.24,-287.7C132.79,-279.98 133.45,-270.71 134.06,-262.11"/>
<polygon fill="grey" stroke="grey" stroke-width="2" points="137.56,-262.33 134.78,-252.1 130.57,-261.83 137.56,-262.33"/>
</g>
<!-- 7 -->
<g id="node8" class="node">
<title>7</title>
<path fill="none" stroke="#56c9d8" stroke-width="2" stroke-dasharray="5,2" d="M302,-252C302,-252 204,-252 204,-252 198,-252 192,-246 192,-240 192,-240 192,-228 192,-228 192,-222 198,-216 204,-216 204,-216 302,-216 302,-216 308,-216 314,-222 314,-228 314,-228 314,-240 314,-240 314,-246 308,-252 302,-252"/>
<text text-anchor="middle" x="253" y="-231.5" font-family="sans" font-size="10.00">download_cnn_model</text>
</g>
<!-- 7&#45;&gt;1 -->
<g id="edge5" class="edge">
<title>7&#45;&gt;1</title>
<path fill="none" stroke="grey" stroke-width="2" d="M224.38,-215.88C209.08,-206.72 190.06,-195.34 173.58,-185.48"/>
<polygon fill="grey" stroke="grey" stroke-width="2" points="175.11,-182.32 164.73,-180.19 171.52,-188.33 175.11,-182.32"/>
</g>
<!-- 8&#45;&gt;0 -->
<g id="edge2" class="edge">
<title>8&#45;&gt;0</title>
<path fill="none" stroke="grey" stroke-width="2" d="M157.08,-71.7C153.93,-63.81 150.12,-54.3 146.62,-45.55"/>
<polygon fill="grey" stroke="grey" stroke-width="2" points="149.81,-44.09 142.84,-36.1 143.31,-46.69 149.81,-44.09"/>
</g>
</g>
</svg>
