<?xml version="1.0" encoding="UTF-8" standalone="no"?>
<!DOCTYPE svg PUBLIC "-//W3C//DTD SVG 1.1//EN"
 "http://www.w3.org/Graphics/SVG/1.1/DTD/svg11.dtd">
<!-- Generated by graphviz version 2.43.0 (0)
 -->
<!-- Title: snakemake_dag Pages: 1 -->
<svg width="464pt" height="519pt"
 viewBox="21.60 21.60 442.60 497.60" xmlns="http://www.w3.org/2000/svg" xmlns:xlink="http://www.w3.org/1999/xlink">
<g id="graph0" class="graph" transform="scale(1 1) rotate(0) translate(25.6 493.6)">
<title>snakemake_dag</title>
<polygon fill="white" stroke="transparent" points="-4,4 -4,-472 417,-472 417,4 -4,4"/>
<g id="clust1" class="cluster">
<title>cluster_workflow</title>
<path fill="white" stroke="black" d="M20,-124C20,-124 350,-124 350,-124 356,-124 362,-130 362,-136 362,-136 362,-332 362,-332 362,-338 356,-344 350,-344 350,-344 20,-344 20,-344 14,-344 8,-338 8,-332 8,-332 8,-136 8,-136 8,-130 14,-124 20,-124"/>
</g>
<!-- synthsr -->
<g id="node1" class="node">
<title>synthsr</title>
<path fill="none" stroke="#9756d8" stroke-width="2" d="M317,-396C317,-396 287,-396 287,-396 281,-396 275,-390 275,-384 275,-384 275,-372 275,-372 275,-366 281,-360 287,-360 287,-360 317,-360 317,-360 323,-360 329,-366 329,-372 329,-372 329,-384 329,-384 329,-390 323,-396 317,-396"/>
<text text-anchor="middle" x="302" y="-375.5" font-family="sans" font-size="10.00">synthsr</text>
</g>
<!-- 3 -->
<g id="node4" class="node">
<title>3</title>
<path fill="none" stroke="#569ad8" stroke-width="2" d="M320,-324C320,-324 284,-324 284,-324 278,-324 272,-318 272,-312 272,-312 272,-300 272,-300 272,-294 278,-288 284,-288 284,-288 320,-288 320,-288 326,-288 332,-294 332,-300 332,-300 332,-312 332,-312 332,-318 326,-324 320,-324"/>
<text text-anchor="middle" x="302" y="-303.5" font-family="sans" font-size="10.00">norm_im</text>
</g>
<!-- synthsr&#45;&gt;3 -->
<g id="edge16" class="edge">
<title>synthsr&#45;&gt;3</title>
<path fill="none" stroke="grey" stroke-width="2" d="M302,-359.7C302,-351.98 302,-342.71 302,-334.11"/>
<polygon fill="grey" stroke="grey" stroke-width="2" points="305.5,-334.1 302,-324.1 298.5,-334.1 305.5,-334.1"/>
</g>
<!-- 6 -->
<g id="node6" class="node">
<title>6</title>
<path fill="none" stroke="#97d856" stroke-width="2" d="M231,-324C231,-324 181,-324 181,-324 175,-324 169,-318 169,-312 169,-312 169,-300 169,-300 169,-294 175,-288 181,-288 181,-288 231,-288 231,-288 237,-288 243,-294 243,-300 243,-300 243,-312 243,-312 243,-318 237,-324 231,-324"/>
<text text-anchor="middle" x="206" y="-303.5" font-family="sans" font-size="10.00">regmni2sub</text>
</g>
<!-- synthsr&#45;&gt;6 -->
<g id="edge17" class="edge">
<title>synthsr&#45;&gt;6</title>
<path fill="none" stroke="grey" stroke-width="2" d="M278.27,-359.7C266.06,-350.8 251.01,-339.82 237.82,-330.2"/>
<polygon fill="grey" stroke="grey" stroke-width="2" points="239.6,-327.17 229.46,-324.1 235.48,-332.82 239.6,-327.17"/>
</g>
<!-- 1 -->
<g id="node2" class="node">
<title>1</title>
<path fill="none" stroke="#56d89a" stroke-width="2" d="M237,-180C237,-180 175,-180 175,-180 169,-180 163,-174 163,-168 163,-168 163,-156 163,-156 163,-150 169,-144 175,-144 175,-144 237,-144 237,-144 243,-144 249,-150 249,-156 249,-156 249,-168 249,-168 249,-174 243,-180 237,-180"/>
<text text-anchor="middle" x="206" y="-159.5" font-family="sans" font-size="10.00">applyfidmodel</text>
</g>
<!-- 0 -->
<g id="node8" class="node">
<title>0</title>
<path fill="none" stroke="#56d8d8" stroke-width="2" d="M221,-36C221,-36 191,-36 191,-36 185,-36 179,-30 179,-24 179,-24 179,-12 179,-12 179,-6 185,0 191,0 191,0 221,0 221,0 227,0 233,-6 233,-12 233,-12 233,-24 233,-24 233,-30 227,-36 221,-36"/>
<text text-anchor="middle" x="206" y="-15.5" font-family="sans" font-size="10.00">all</text>
</g>
<!-- 1&#45;&gt;0 -->
<g id="edge7" class="edge">
<title>1&#45;&gt;0</title>
<path fill="none" stroke="grey" stroke-width="2" d="M186.53,-143.92C177.18,-134.4 166.95,-121.72 162,-108 156.57,-92.95 156.57,-87.05 162,-72 165.75,-61.6 172.54,-51.8 179.67,-43.52"/>
<polygon fill="grey" stroke="grey" stroke-width="2" points="182.32,-45.81 186.53,-36.08 177.17,-41.06 182.32,-45.81"/>
</g>
<!-- 8 -->
<g id="node10" class="node">
<title>8</title>
<path fill="none" stroke="#d8569c" stroke-width="2" d="M228.5,-108C228.5,-108 183.5,-108 183.5,-108 177.5,-108 171.5,-102 171.5,-96 171.5,-96 171.5,-84 171.5,-84 171.5,-78 177.5,-72 183.5,-72 183.5,-72 228.5,-72 228.5,-72 234.5,-72 240.5,-78 240.5,-84 240.5,-84 240.5,-96 240.5,-96 240.5,-102 234.5,-108 228.5,-108"/>
<text text-anchor="middle" x="206" y="-87.5" font-family="sans" font-size="10.00">stereotaxy</text>
</g>
<!-- 1&#45;&gt;8 -->
<g id="edge8" class="edge">
<title>1&#45;&gt;8</title>
<path fill="none" stroke="grey" stroke-width="2" d="M206,-143.7C206,-135.98 206,-126.71 206,-118.11"/>
<polygon fill="grey" stroke="grey" stroke-width="2" points="209.5,-118.1 206,-108.1 202.5,-118.1 209.5,-118.1"/>
</g>
<!-- 9 -->
<g id="node11" class="node">
<title>9</title>
<path fill="none" stroke="#b6d856" stroke-width="2" d="M301,-108C301,-108 271,-108 271,-108 265,-108 259,-102 259,-96 259,-96 259,-84 259,-84 259,-78 265,-72 271,-72 271,-72 301,-72 301,-72 307,-72 313,-78 313,-84 313,-84 313,-96 313,-96 313,-102 307,-108 301,-108"/>
<text text-anchor="middle" x="286" y="-87.5" font-family="sans" font-size="10.00">fidqc</text>
</g>
<!-- 1&#45;&gt;9 -->
<g id="edge10" class="edge">
<title>1&#45;&gt;9</title>
<path fill="none" stroke="grey" stroke-width="2" d="M225.78,-143.7C235.75,-134.97 248.01,-124.24 258.86,-114.75"/>
<polygon fill="grey" stroke="grey" stroke-width="2" points="261.23,-117.32 266.45,-108.1 256.62,-112.06 261.23,-117.32"/>
</g>
<!-- 2 -->
<g id="node3" class="node">
<title>2</title>
<path fill="none" stroke="#d85656" stroke-width="2" d="M330,-252C330,-252 274,-252 274,-252 268,-252 262,-246 262,-240 262,-240 262,-228 262,-228 262,-222 268,-216 274,-216 274,-216 330,-216 330,-216 336,-216 342,-222 342,-228 342,-228 342,-240 342,-240 342,-246 336,-252 330,-252"/>
<text text-anchor="middle" x="302" y="-231.5" font-family="sans" font-size="10.00">resample_im</text>
</g>
<!-- 2&#45;&gt;1 -->
<g id="edge2" class="edge">
<title>2&#45;&gt;1</title>
<path fill="none" stroke="grey" stroke-width="2" d="M278.27,-215.7C266.06,-206.8 251.01,-195.82 237.82,-186.2"/>
<polygon fill="grey" stroke="grey" stroke-width="2" points="239.6,-183.17 229.46,-180.1 235.48,-188.82 239.6,-183.17"/>
</g>
<!-- 3&#45;&gt;2 -->
<g id="edge4" class="edge">
<title>3&#45;&gt;2</title>
<path fill="none" stroke="grey" stroke-width="2" d="M302,-287.7C302,-279.98 302,-270.71 302,-262.11"/>
<polygon fill="grey" stroke="grey" stroke-width="2" points="305.5,-262.1 302,-252.1 298.5,-262.1 305.5,-262.1"/>
</g>
<!-- 5 -->
<g id="node5" class="node">
<title>5</title>
<path fill="none" stroke="#d89556" stroke-width="2" d="M232,-252C232,-252 180,-252 180,-252 174,-252 168,-246 168,-240 168,-240 168,-228 168,-228 168,-222 174,-216 180,-216 180,-216 232,-216 232,-216 238,-216 244,-222 244,-228 244,-228 244,-240 244,-240 244,-246 238,-252 232,-252"/>
<text text-anchor="middle" x="206" y="-231.5" font-family="sans" font-size="10.00">mni2subfids</text>
</g>
<!-- 5&#45;&gt;1 -->
<g id="edge3" class="edge">
<title>5&#45;&gt;1</title>
<path fill="none" stroke="grey" stroke-width="2" d="M206,-215.7C206,-207.98 206,-198.71 206,-190.11"/>
<polygon fill="grey" stroke="grey" stroke-width="2" points="209.5,-190.1 206,-180.1 202.5,-190.1 209.5,-190.1"/>
</g>
<!-- 6&#45;&gt;5 -->
<g id="edge5" class="edge">
<title>6&#45;&gt;5</title>
<path fill="none" stroke="grey" stroke-width="2" d="M206,-287.7C206,-279.98 206,-270.71 206,-262.11"/>
<polygon fill="grey" stroke="grey" stroke-width="2" points="209.5,-262.1 206,-252.1 202.5,-262.1 209.5,-262.1"/>
</g>
<!-- 7 -->
<g id="node7" class="node">
<title>7</title>
<path fill="none" stroke="#59d856" stroke-width="2" d="M138,-252C138,-252 40,-252 40,-252 34,-252 28,-246 28,-240 28,-240 28,-228 28,-228 28,-222 34,-216 40,-216 40,-216 138,-216 138,-216 144,-216 150,-222 150,-228 150,-228 150,-240 150,-240 150,-246 144,-252 138,-252"/>
<text text-anchor="middle" x="89" y="-231.5" font-family="sans" font-size="10.00">download_cnn_model</text>
</g>
<!-- 7&#45;&gt;1 -->
<g id="edge1" class="edge">
<title>7&#45;&gt;1</title>
<path fill="none" stroke="grey" stroke-width="2" d="M117.62,-215.88C132.92,-206.72 151.94,-195.34 168.42,-185.48"/>
<polygon fill="grey" stroke="grey" stroke-width="2" points="170.48,-188.33 177.27,-180.19 166.89,-182.32 170.48,-188.33"/>
</g>
<!-- 4 -->
<g id="node9" class="node">
<title>4</title>
<path fill="none" stroke="#d6d856" stroke-width="2" d="M234,-396C234,-396 150,-396 150,-396 144,-396 138,-390 138,-384 138,-384 138,-372 138,-372 138,-366 144,-360 150,-360 150,-360 234,-360 234,-360 240,-360 246,-366 246,-372 246,-372 246,-384 246,-384 246,-390 240,-396 234,-396"/>
<text text-anchor="middle" x="192" y="-375.5" font-family="sans" font-size="10.00">n4_bias_correction</text>
</g>
<!-- 4&#45;&gt;6 -->
<g id="edge6" class="edge">
<title>4&#45;&gt;6</title>
<path fill="none" stroke="grey" stroke-width="2" d="M195.46,-359.7C197,-351.98 198.86,-342.71 200.58,-334.11"/>
<polygon fill="grey" stroke="grey" stroke-width="2" points="204.05,-334.6 202.58,-324.1 197.19,-333.22 204.05,-334.6"/>
</g>
<!-- 8&#45;&gt;0 -->
<g id="edge9" class="edge">
<title>8&#45;&gt;0</title>
<path fill="none" stroke="grey" stroke-width="2" d="M206,-71.7C206,-63.98 206,-54.71 206,-46.11"/>
<polygon fill="grey" stroke="grey" stroke-width="2" points="209.5,-46.1 206,-36.1 202.5,-46.1 209.5,-46.1"/>
</g>
<!-- 9&#45;&gt;0 -->
<g id="edge11" class="edge">
<title>9&#45;&gt;0</title>
<path fill="none" stroke="grey" stroke-width="2" d="M266.22,-71.7C256.25,-62.97 243.99,-52.24 233.14,-42.75"/>
<polygon fill="grey" stroke="grey" stroke-width="2" points="235.38,-40.06 225.55,-36.1 230.77,-45.32 235.38,-40.06"/>
</g>
<!-- T1w -->
<g id="node12" class="node">
<title>T1w</title>
<path fill="none" stroke="black" stroke-width="2" d="M185,-468C185,-468 155,-468 155,-468 149,-468 143,-462 143,-456 143,-456 143,-444 143,-444 143,-438 149,-432 155,-432 155,-432 185,-432 185,-432 191,-432 197,-438 197,-444 197,-444 197,-456 197,-456 197,-462 191,-468 185,-468"/>
<text text-anchor="middle" x="170" y="-447.5" font-family="sans" font-size="10.00">T1w</text>
</g>
<!-- T1w&#45;&gt;4 -->
<g id="edge12" class="edge">
<title>T1w&#45;&gt;4</title>
<path fill="none" stroke="grey" stroke-width="2" stroke-dasharray="5,2" d="M175.44,-431.7C177.89,-423.9 180.84,-414.51 183.57,-405.83"/>
<polygon fill="grey" stroke="grey" stroke-width="2" points="186.96,-406.69 186.62,-396.1 180.29,-404.59 186.96,-406.69"/>
</g>
<!-- T2w -->
<g id="node13" class="node">
<title>T2w</title>
<path fill="none" stroke="black" stroke-width="2" d="M257,-468C257,-468 227,-468 227,-468 221,-468 215,-462 215,-456 215,-456 215,-444 215,-444 215,-438 221,-432 227,-432 227,-432 257,-432 257,-432 263,-432 269,-438 269,-444 269,-444 269,-456 269,-456 269,-462 263,-468 257,-468"/>
<text text-anchor="middle" x="242" y="-447.5" font-family="sans" font-size="10.00">T2w</text>
</g>
<!-- T2w&#45;&gt;synthsr -->
<g id="edge13" class="edge">
<title>T2w&#45;&gt;synthsr</title>
<path fill="none" stroke="grey" stroke-width="2" stroke-dasharray="5,2" d="M256.83,-431.7C264.02,-423.3 272.8,-413.07 280.69,-403.86"/>
<polygon fill="grey" stroke="grey" stroke-width="2" points="283.49,-405.97 287.34,-396.1 278.17,-401.42 283.49,-405.97"/>
</g>
<!-- FLAIR -->
<g id="node14" class="node">
<title>FLAIR</title>
<path fill="none" stroke="black" stroke-width="2" d="M329,-468C329,-468 299,-468 299,-468 293,-468 287,-462 287,-456 287,-456 287,-444 287,-444 287,-438 293,-432 299,-432 299,-432 329,-432 329,-432 335,-432 341,-438 341,-444 341,-444 341,-456 341,-456 341,-462 335,-468 329,-468"/>
<text text-anchor="middle" x="314" y="-447.5" font-family="sans" font-size="10.00">FLAIR</text>
</g>
<!-- FLAIR&#45;&gt;synthsr -->
<g id="edge14" class="edge">
<title>FLAIR&#45;&gt;synthsr</title>
<path fill="none" stroke="grey" stroke-width="2" stroke-dasharray="5,2" d="M311.03,-431.7C309.71,-423.98 308.12,-414.71 306.65,-406.11"/>
<polygon fill="grey" stroke="grey" stroke-width="2" points="310.07,-405.37 304.93,-396.1 303.17,-406.55 310.07,-405.37"/>
</g>
<!-- ct -->
<g id="node15" class="node">
<title>ct</title>
<path fill="none" stroke="black" stroke-width="2" d="M401,-468C401,-468 371,-468 371,-468 365,-468 359,-462 359,-456 359,-456 359,-444 359,-444 359,-438 365,-432 371,-432 371,-432 401,-432 401,-432 407,-432 413,-438 413,-444 413,-444 413,-456 413,-456 413,-462 407,-468 401,-468"/>
<text text-anchor="middle" x="386" y="-447.5" font-family="sans" font-size="10.00">ct</text>
</g>
<!-- ct&#45;&gt;synthsr -->
<g id="edge15" class="edge">
<title>ct&#45;&gt;synthsr</title>
<path fill="none" stroke="grey" stroke-width="2" stroke-dasharray="5,2" d="M365.24,-431.7C354.76,-422.97 341.89,-412.24 330.5,-402.75"/>
<polygon fill="grey" stroke="grey" stroke-width="2" points="332.45,-399.82 322.53,-396.1 327.97,-405.19 332.45,-399.82"/>
</g>
</g>
</svg>
