<?xml version="1.0" encoding="UTF-8" standalone="no"?>
<!DOCTYPE svg PUBLIC "-//W3C//DTD SVG 1.1//EN"
 "http://www.w3.org/Graphics/SVG/1.1/DTD/svg11.dtd">
<!-- Generated by graphviz version 2.43.0 (0)
 -->
<!-- Title: snakemake_dag Pages: 1 -->
<svg width="477pt" height="519pt"
 viewBox="21.60 21.60 455.60 497.60" xmlns="http://www.w3.org/2000/svg" xmlns:xlink="http://www.w3.org/1999/xlink">
<g id="graph0" class="graph" transform="scale(1 1) rotate(0) translate(25.6 493.6)">
<title>snakemake_dag</title>
<polygon fill="white" stroke="transparent" points="-4,4 -4,-472 430,-472 430,4 -4,4"/>
<g id="clust1" class="cluster">
<title>cluster_workflow</title>
<path fill="white" stroke="black" d="M20,-124C20,-124 350,-124 350,-124 356,-124 362,-130 362,-136 362,-136 362,-332 362,-332 362,-338 356,-344 350,-344 350,-344 20,-344 20,-344 14,-344 8,-338 8,-332 8,-332 8,-136 8,-136 8,-130 14,-124 20,-124"/>
</g>
<!-- synthsr -->
<g id="node1" class="node">
<title>synthsr</title>
<path fill="none" stroke="#9756d8" stroke-width="2" d="M319,-396C319,-396 289,-396 289,-396 283,-396 277,-390 277,-384 277,-384 277,-372 277,-372 277,-366 283,-360 289,-360 289,-360 319,-360 319,-360 325,-360 331,-366 331,-372 331,-372 331,-384 331,-384 331,-390 325,-396 319,-396"/>
<text text-anchor="middle" x="304" y="-375.5" font-family="sans" font-size="10.00">synthsr</text>
</g>
<!-- 3 -->
<g id="node4" class="node">
<title>3</title>
<path fill="none" stroke="#569ad8" stroke-width="2" d="M320,-324C320,-324 284,-324 284,-324 278,-324 272,-318 272,-312 272,-312 272,-300 272,-300 272,-294 278,-288 284,-288 284,-288 320,-288 320,-288 326,-288 332,-294 332,-300 332,-300 332,-312 332,-312 332,-318 326,-324 320,-324"/>
<text text-anchor="middle" x="302" y="-303.5" font-family="sans" font-size="10.00">norm_im</text>
</g>
<!-- synthsr&#45;&gt;3 -->
<g id="edge17" class="edge">
<title>synthsr&#45;&gt;3</title>
<path fill="none" stroke="grey" stroke-width="2" d="M303.51,-359.7C303.29,-351.98 303.02,-342.71 302.77,-334.11"/>
<polygon fill="grey" stroke="grey" stroke-width="2" points="306.27,-334 302.49,-324.1 299.28,-334.2 306.27,-334"/>
</g>
<!-- 6 -->
<g id="node6" class="node">
<title>6</title>
<path fill="none" stroke="#97d856" stroke-width="2" d="M231,-324C231,-324 181,-324 181,-324 175,-324 169,-318 169,-312 169,-312 169,-300 169,-300 169,-294 175,-288 181,-288 181,-288 231,-288 231,-288 237,-288 243,-294 243,-300 243,-300 243,-312 243,-312 243,-318 237,-324 231,-324"/>
<text text-anchor="middle" x="206" y="-303.5" font-family="sans" font-size="10.00">regmni2sub</text>
</g>
<!-- synthsr&#45;&gt;6 -->
<g id="edge18" class="edge">
<title>synthsr&#45;&gt;6</title>
<path fill="none" stroke="grey" stroke-width="2" d="M280.03,-359.88C267.45,-350.89 251.87,-339.76 238.25,-330.03"/>
<polygon fill="grey" stroke="grey" stroke-width="2" points="240.24,-327.15 230.07,-324.19 236.17,-332.85 240.24,-327.15"/>
</g>
<!-- 1 -->
<g id="node2" class="node">
<title>1</title>
<path fill="none" stroke="#56d89a" stroke-width="2" d="M237,-180C237,-180 175,-180 175,-180 169,-180 163,-174 163,-168 163,-168 163,-156 163,-156 163,-150 169,-144 175,-144 175,-144 237,-144 237,-144 243,-144 249,-150 249,-156 249,-156 249,-168 249,-168 249,-174 243,-180 237,-180"/>
<text text-anchor="middle" x="206" y="-159.5" font-family="sans" font-size="10.00">applyfidmodel</text>
</g>
<!-- 0 -->
<g id="node8" class="node">
<title>0</title>
<path fill="none" stroke="#56d8d8" stroke-width="2" d="M221,-36C221,-36 191,-36 191,-36 185,-36 179,-30 179,-24 179,-24 179,-12 179,-12 179,-6 185,0 191,0 191,0 221,0 221,0 227,0 233,-6 233,-12 233,-12 233,-24 233,-24 233,-30 227,-36 221,-36"/>
<text text-anchor="middle" x="206" y="-15.5" font-family="sans" font-size="10.00">all</text>
</g>
<!-- 1&#45;&gt;0 -->
<g id="edge8" class="edge">
<title>1&#45;&gt;0</title>
<path fill="none" stroke="grey" stroke-width="2" d="M186.96,-143.84C177.82,-134.3 167.83,-121.62 163,-108 157.65,-92.92 157.65,-87.08 163,-72 166.66,-61.68 173.29,-51.9 180.26,-43.61"/>
<polygon fill="grey" stroke="grey" stroke-width="2" points="182.87,-45.94 186.96,-36.16 177.67,-41.26 182.87,-45.94"/>
</g>
<!-- 8 -->
<g id="node10" class="node">
<title>8</title>
<path fill="none" stroke="#d8569c" stroke-width="2" d="M228.5,-108C228.5,-108 183.5,-108 183.5,-108 177.5,-108 171.5,-102 171.5,-96 171.5,-96 171.5,-84 171.5,-84 171.5,-78 177.5,-72 183.5,-72 183.5,-72 228.5,-72 228.5,-72 234.5,-72 240.5,-78 240.5,-84 240.5,-84 240.5,-96 240.5,-96 240.5,-102 234.5,-108 228.5,-108"/>
<text text-anchor="middle" x="206" y="-87.5" font-family="sans" font-size="10.00">stereotaxy</text>
</g>
<!-- 1&#45;&gt;8 -->
<g id="edge9" class="edge">
<title>1&#45;&gt;8</title>
<path fill="none" stroke="grey" stroke-width="2" d="M206,-143.7C206,-135.98 206,-126.71 206,-118.11"/>
<polygon fill="grey" stroke="grey" stroke-width="2" points="209.5,-118.1 206,-108.1 202.5,-118.1 209.5,-118.1"/>
</g>
<!-- 9 -->
<g id="node11" class="node">
<title>9</title>
<path fill="none" stroke="#b6d856" stroke-width="2" d="M301,-108C301,-108 271,-108 271,-108 265,-108 259,-102 259,-96 259,-96 259,-84 259,-84 259,-78 265,-72 271,-72 271,-72 301,-72 301,-72 307,-72 313,-78 313,-84 313,-84 313,-96 313,-96 313,-102 307,-108 301,-108"/>
<text text-anchor="middle" x="286" y="-87.5" font-family="sans" font-size="10.00">fidqc</text>
</g>
<!-- 1&#45;&gt;9 -->
<g id="edge11" class="edge">
<title>1&#45;&gt;9</title>
<path fill="none" stroke="grey" stroke-width="2" d="M225.78,-143.7C235.75,-134.97 248.01,-124.24 258.86,-114.75"/>
<polygon fill="grey" stroke="grey" stroke-width="2" points="261.23,-117.32 266.45,-108.1 256.62,-112.06 261.23,-117.32"/>
</g>
<!-- 2 -->
<g id="node3" class="node">
<title>2</title>
<path fill="none" stroke="#d85656" stroke-width="2" d="M330,-252C330,-252 274,-252 274,-252 268,-252 262,-246 262,-240 262,-240 262,-228 262,-228 262,-222 268,-216 274,-216 274,-216 330,-216 330,-216 336,-216 342,-222 342,-228 342,-228 342,-240 342,-240 342,-246 336,-252 330,-252"/>
<text text-anchor="middle" x="302" y="-231.5" font-family="sans" font-size="10.00">resample_im</text>
</g>
<!-- 2&#45;&gt;1 -->
<g id="edge2" class="edge">
<title>2&#45;&gt;1</title>
<path fill="none" stroke="grey" stroke-width="2" d="M278.27,-215.7C266.06,-206.8 251.01,-195.82 237.82,-186.2"/>
<polygon fill="grey" stroke="grey" stroke-width="2" points="239.6,-183.17 229.46,-180.1 235.48,-188.82 239.6,-183.17"/>
</g>
<!-- 3&#45;&gt;2 -->
<g id="edge4" class="edge">
<title>3&#45;&gt;2</title>
<path fill="none" stroke="grey" stroke-width="2" d="M302,-287.7C302,-279.98 302,-270.71 302,-262.11"/>
<polygon fill="grey" stroke="grey" stroke-width="2" points="305.5,-262.1 302,-252.1 298.5,-262.1 305.5,-262.1"/>
</g>
<!-- 5 -->
<g id="node5" class="node">
<title>5</title>
<path fill="none" stroke="#d89556" stroke-width="2" d="M232,-252C232,-252 180,-252 180,-252 174,-252 168,-246 168,-240 168,-240 168,-228 168,-228 168,-222 174,-216 180,-216 180,-216 232,-216 232,-216 238,-216 244,-222 244,-228 244,-228 244,-240 244,-240 244,-246 238,-252 232,-252"/>
<text text-anchor="middle" x="206" y="-231.5" font-family="sans" font-size="10.00">mni2subfids</text>
</g>
<!-- 5&#45;&gt;1 -->
<g id="edge3" class="edge">
<title>5&#45;&gt;1</title>
<path fill="none" stroke="grey" stroke-width="2" d="M206,-215.7C206,-207.98 206,-198.71 206,-190.11"/>
<polygon fill="grey" stroke="grey" stroke-width="2" points="209.5,-190.1 206,-180.1 202.5,-190.1 209.5,-190.1"/>
</g>
<!-- 6&#45;&gt;5 -->
<g id="edge5" class="edge">
<title>6&#45;&gt;5</title>
<path fill="none" stroke="grey" stroke-width="2" d="M206,-287.7C206,-279.98 206,-270.71 206,-262.11"/>
<polygon fill="grey" stroke="grey" stroke-width="2" points="209.5,-262.1 206,-252.1 202.5,-262.1 209.5,-262.1"/>
</g>
<!-- 7 -->
<g id="node7" class="node">
<title>7</title>
<path fill="none" stroke="#59d856" stroke-width="2" d="M138,-252C138,-252 40,-252 40,-252 34,-252 28,-246 28,-240 28,-240 28,-228 28,-228 28,-222 34,-216 40,-216 40,-216 138,-216 138,-216 144,-216 150,-222 150,-228 150,-228 150,-240 150,-240 150,-246 144,-252 138,-252"/>
<text text-anchor="middle" x="89" y="-231.5" font-family="sans" font-size="10.00">download_cnn_model</text>
</g>
<!-- 7&#45;&gt;1 -->
<g id="edge1" class="edge">
<title>7&#45;&gt;1</title>
<path fill="none" stroke="grey" stroke-width="2" d="M117.62,-215.88C132.92,-206.72 151.94,-195.34 168.42,-185.48"/>
<polygon fill="grey" stroke="grey" stroke-width="2" points="170.48,-188.33 177.27,-180.19 166.89,-182.32 170.48,-188.33"/>
</g>
<!-- 4 -->
<g id="node9" class="node">
<title>4</title>
<path fill="none" stroke="#d6d856" stroke-width="2" d="M247,-396C247,-396 163,-396 163,-396 157,-396 151,-390 151,-384 151,-384 151,-372 151,-372 151,-366 157,-360 163,-360 163,-360 247,-360 247,-360 253,-360 259,-366 259,-372 259,-372 259,-384 259,-384 259,-390 253,-396 247,-396"/>
<text text-anchor="middle" x="205" y="-375.5" font-family="sans" font-size="10.00">n4_bias_correction</text>
</g>
<!-- 4&#45;&gt;3 -->
<g id="edge7" class="edge">
<title>4&#45;&gt;3</title>
<path fill="none" stroke="grey" stroke-width="2" d="M229.48,-359.99C236.75,-354.88 244.72,-349.25 252,-344 258.14,-339.57 264.67,-334.79 270.92,-330.19"/>
<polygon fill="grey" stroke="grey" stroke-width="2" points="273.23,-332.83 279.19,-324.07 269.07,-327.2 273.23,-332.83"/>
</g>
<!-- 4&#45;&gt;6 -->
<g id="edge6" class="edge">
<title>4&#45;&gt;6</title>
<path fill="none" stroke="grey" stroke-width="2" d="M205.25,-359.7C205.36,-351.98 205.49,-342.71 205.61,-334.11"/>
<polygon fill="grey" stroke="grey" stroke-width="2" points="209.11,-334.15 205.76,-324.1 202.11,-334.05 209.11,-334.15"/>
</g>
<!-- 8&#45;&gt;0 -->
<g id="edge10" class="edge">
<title>8&#45;&gt;0</title>
<path fill="none" stroke="grey" stroke-width="2" d="M206,-71.7C206,-63.98 206,-54.71 206,-46.11"/>
<polygon fill="grey" stroke="grey" stroke-width="2" points="209.5,-46.1 206,-36.1 202.5,-46.1 209.5,-46.1"/>
</g>
<!-- 9&#45;&gt;0 -->
<g id="edge12" class="edge">
<title>9&#45;&gt;0</title>
<path fill="none" stroke="grey" stroke-width="2" d="M266.22,-71.7C256.25,-62.97 243.99,-52.24 233.14,-42.75"/>
<polygon fill="grey" stroke="grey" stroke-width="2" points="235.38,-40.06 225.55,-36.1 230.77,-45.32 235.38,-40.06"/>
</g>
<!-- T1w -->
<g id="node12" class="node">
<title>T1w</title>
<path fill="none" stroke="black" stroke-width="2" d="M198,-468C198,-468 168,-468 168,-468 162,-468 156,-462 156,-456 156,-456 156,-444 156,-444 156,-438 162,-432 168,-432 168,-432 198,-432 198,-432 204,-432 210,-438 210,-444 210,-444 210,-456 210,-456 210,-462 204,-468 198,-468"/>
<text text-anchor="middle" x="183" y="-447.5" font-family="sans" font-size="10.00">T1w</text>
</g>
<!-- T1w&#45;&gt;4 -->
<g id="edge13" class="edge">
<title>T1w&#45;&gt;4</title>
<path fill="none" stroke="grey" stroke-width="2" stroke-dasharray="5,2" d="M188.44,-431.7C190.89,-423.9 193.84,-414.51 196.57,-405.83"/>
<polygon fill="grey" stroke="grey" stroke-width="2" points="199.96,-406.69 199.62,-396.1 193.29,-404.59 199.96,-406.69"/>
</g>
<!-- T2w -->
<g id="node13" class="node">
<title>T2w</title>
<path fill="none" stroke="black" stroke-width="2" d="M342,-468C342,-468 312,-468 312,-468 306,-468 300,-462 300,-456 300,-456 300,-444 300,-444 300,-438 306,-432 312,-432 312,-432 342,-432 342,-432 348,-432 354,-438 354,-444 354,-444 354,-456 354,-456 354,-462 348,-468 342,-468"/>
<text text-anchor="middle" x="327" y="-447.5" font-family="sans" font-size="10.00">T2w</text>
</g>
<!-- T2w&#45;&gt;synthsr -->
<g id="edge14" class="edge">
<title>T2w&#45;&gt;synthsr</title>
<path fill="none" stroke="grey" stroke-width="2" stroke-dasharray="5,2" d="M321.31,-431.7C318.75,-423.9 315.67,-414.51 312.82,-405.83"/>
<polygon fill="grey" stroke="grey" stroke-width="2" points="316.07,-404.51 309.62,-396.1 309.42,-406.7 316.07,-404.51"/>
</g>
<!-- FLAIR -->
<g id="node14" class="node">
<title>FLAIR</title>
<path fill="none" stroke="black" stroke-width="2" d="M414,-468C414,-468 384,-468 384,-468 378,-468 372,-462 372,-456 372,-456 372,-444 372,-444 372,-438 378,-432 384,-432 384,-432 414,-432 414,-432 420,-432 426,-438 426,-444 426,-444 426,-456 426,-456 426,-462 420,-468 414,-468"/>
<text text-anchor="middle" x="399" y="-447.5" font-family="sans" font-size="10.00">FLAIR</text>
</g>
<!-- FLAIR&#45;&gt;synthsr -->
<g id="edge15" class="edge">
<title>FLAIR&#45;&gt;synthsr</title>
<path fill="none" stroke="grey" stroke-width="2" stroke-dasharray="5,2" d="M375.52,-431.7C363.44,-422.8 348.55,-411.82 335.48,-402.2"/>
<polygon fill="grey" stroke="grey" stroke-width="2" points="337.34,-399.22 327.21,-396.1 333.19,-404.85 337.34,-399.22"/>
</g>
<!-- ct -->
<g id="node15" class="node">
<title>ct</title>
<path fill="none" stroke="black" stroke-width="2" d="M270,-468C270,-468 240,-468 240,-468 234,-468 228,-462 228,-456 228,-456 228,-444 228,-444 228,-438 234,-432 240,-432 240,-432 270,-432 270,-432 276,-432 282,-438 282,-444 282,-444 282,-456 282,-456 282,-462 276,-468 270,-468"/>
<text text-anchor="middle" x="255" y="-447.5" font-family="sans" font-size="10.00">ct</text>
</g>
<!-- ct&#45;&gt;synthsr -->
<g id="edge16" class="edge">
<title>ct&#45;&gt;synthsr</title>
<path fill="none" stroke="grey" stroke-width="2" stroke-dasharray="5,2" d="M267.11,-431.7C272.87,-423.47 279.86,-413.48 286.21,-404.42"/>
<polygon fill="grey" stroke="grey" stroke-width="2" points="289.16,-406.3 292.03,-396.1 283.42,-402.29 289.16,-406.3"/>
</g>
</g>
</svg>
